<svg width="390" height="390" viewBox="0 0 390 390" fill="none" xmlns="http://www.w3.org/2000/svg">
<path d="M191.724 389.471H191.703L189.94 389.435C189.213 389.419 188.637 388.816 188.653 388.089C188.672 387.363 189.347 386.793 189.999 386.805L191.743 386.838C192.47 386.85 193.049 387.448 193.04 388.175C193.028 388.895 192.441 389.471 191.724 389.471ZM202.243 389.35C201.541 389.35 200.959 388.794 200.931 388.084C200.902 387.358 201.467 386.745 202.193 386.719L203.935 386.645C204.586 386.619 205.279 387.172 205.312 387.899C205.346 388.625 204.786 389.24 204.059 389.276L202.298 389.352C202.282 389.352 202.265 389.352 202.246 389.352L202.243 389.35ZM179.466 388.904C179.433 388.904 179.397 388.904 179.361 388.899L177.603 388.754C176.878 388.692 176.342 388.053 176.404 387.329C176.469 386.605 177.121 386.069 177.829 386.133L179.566 386.276C180.29 386.333 180.834 386.967 180.776 387.691C180.722 388.38 180.145 388.904 179.466 388.904ZM214.483 388.494C213.816 388.494 213.244 387.989 213.175 387.31C213.101 386.586 213.627 385.94 214.349 385.869L216.081 385.685C216.794 385.604 217.454 386.126 217.532 386.848C217.613 387.57 217.092 388.22 216.37 388.301L214.616 388.487C214.571 388.492 214.526 388.494 214.48 388.494H214.483ZM167.272 387.565C167.21 387.565 167.148 387.56 167.086 387.553L165.337 387.296C164.62 387.186 164.124 386.517 164.234 385.797C164.341 385.078 165.013 384.587 165.733 384.692L167.458 384.944C168.177 385.047 168.678 385.711 168.575 386.433C168.482 387.091 167.92 387.565 167.274 387.565H167.272ZM226.643 386.867C226.012 386.867 225.452 386.409 225.347 385.766C225.228 385.049 225.714 384.372 226.431 384.253L228.147 383.96C228.871 383.836 229.545 384.313 229.669 385.03C229.796 385.745 229.319 386.429 228.602 386.555L226.86 386.853C226.789 386.865 226.717 386.869 226.643 386.869V386.867ZM155.183 385.456C155.095 385.456 155.004 385.447 154.913 385.428C154.337 385.309 153.76 385.187 153.186 385.061C152.474 384.906 152.023 384.206 152.181 383.496C152.335 382.786 153.034 382.335 153.746 382.49L155.45 382.852C156.16 383 156.619 383.696 156.472 384.408C156.343 385.03 155.795 385.456 155.185 385.456H155.183ZM238.68 384.472C238.082 384.472 237.541 384.06 237.401 383.453C237.236 382.745 237.677 382.037 238.385 381.873L240.079 381.47C240.782 381.301 241.496 381.732 241.668 382.44C241.84 383.148 241.406 383.858 240.701 384.029L238.983 384.437C238.883 384.461 238.783 384.47 238.683 384.47L238.68 384.472ZM143.253 382.581C143.139 382.581 143.02 382.566 142.903 382.533L141.202 382.057C140.504 381.856 140.099 381.13 140.296 380.429C140.499 379.731 141.211 379.324 141.924 379.524L143.599 379.993C144.299 380.186 144.711 380.91 144.518 381.611C144.356 382.195 143.827 382.578 143.248 382.578L143.253 382.581ZM250.538 381.311C249.974 381.311 249.45 380.944 249.278 380.374C249.068 379.679 249.461 378.945 250.16 378.735L251.825 378.225C252.528 378.008 253.257 378.399 253.471 379.093C253.688 379.786 253.3 380.525 252.606 380.739L250.917 381.256C250.791 381.294 250.662 381.313 250.538 381.313V381.311ZM131.531 378.947C131.388 378.947 131.245 378.923 131.102 378.876L129.427 378.29C128.741 378.047 128.383 377.294 128.626 376.61C128.869 375.926 129.62 375.566 130.309 375.809L131.96 376.388C132.646 376.624 133.013 377.375 132.774 378.061C132.586 378.607 132.076 378.947 131.531 378.947ZM262.17 377.399C261.636 377.399 261.134 377.07 260.936 376.541C260.683 375.859 261.031 375.102 261.71 374.849L263.338 374.234C264.024 373.975 264.779 374.315 265.039 374.992C265.298 375.671 264.96 376.431 264.281 376.691L262.63 377.315C262.477 377.372 262.323 377.399 262.17 377.399ZM120.04 374.563C119.87 374.563 119.696 374.53 119.53 374.461C118.984 374.232 118.441 374.001 117.898 373.767C117.231 373.479 116.923 372.705 117.211 372.038C117.497 371.368 118.276 371.061 118.941 371.349C119.475 371.578 120.011 371.807 120.547 372.031C121.219 372.312 121.533 373.084 121.252 373.753C121.043 374.258 120.554 374.561 120.04 374.561V374.563ZM273.511 372.762C273.008 372.762 272.53 372.474 272.31 371.985C272.015 371.323 272.31 370.544 272.973 370.246L274.557 369.529C275.212 369.229 275.999 369.517 276.301 370.179C276.604 370.839 276.313 371.621 275.651 371.923L274.054 372.648C273.878 372.726 273.697 372.764 273.514 372.764L273.511 372.762ZM108.856 369.455C108.66 369.455 108.46 369.41 108.272 369.317L106.692 368.523C106.042 368.195 105.785 367.401 106.113 366.753C106.445 366.105 107.236 365.845 107.881 366.174L109.444 366.958C110.095 367.282 110.362 368.071 110.038 368.724C109.809 369.186 109.342 369.455 108.856 369.455ZM284.531 367.413C284.056 367.413 283.599 367.156 283.363 366.71C283.025 366.067 283.273 365.271 283.916 364.933L285.446 364.118C286.091 363.773 286.885 364.016 287.228 364.654C287.573 365.295 287.333 366.093 286.694 366.436L285.141 367.263C284.945 367.365 284.736 367.416 284.531 367.416V367.413ZM98.0269 363.646C97.8029 363.646 97.579 363.589 97.3693 363.47C96.8571 363.175 96.3472 362.877 95.8397 362.577C95.2131 362.207 95.0058 361.4 95.3775 360.773C95.7468 360.149 96.5521 359.941 97.1811 360.311C97.6814 360.606 98.1818 360.899 98.6869 361.19C99.3159 361.554 99.5327 362.36 99.1682 362.989C98.9251 363.41 98.482 363.646 98.0269 363.646ZM295.193 361.371C294.75 361.371 294.316 361.147 294.066 360.74C293.687 360.118 293.885 359.31 294.504 358.931L295.986 358.021C296.606 357.637 297.416 357.828 297.797 358.445C298.18 359.062 297.992 359.875 297.373 360.258L295.874 361.18C295.66 361.311 295.424 361.373 295.19 361.373L295.193 361.371ZM87.5936 357.163C87.3434 357.163 87.0909 357.092 86.8645 356.942L85.3992 355.955C84.7988 355.548 84.6392 354.728 85.049 354.128C85.4564 353.525 86.2736 353.368 86.8764 353.778L88.325 354.752C88.9302 355.155 89.0922 355.972 88.6896 356.577C88.4346 356.958 88.0177 357.163 87.5936 357.163ZM305.457 354.664C305.04 354.664 304.632 354.469 304.378 354.102C303.961 353.506 304.106 352.684 304.702 352.269L306.122 351.266C306.715 350.842 307.534 350.983 307.956 351.574C308.38 352.165 308.24 352.987 307.649 353.411C307.17 353.751 306.691 354.092 306.21 354.428C305.981 354.588 305.719 354.666 305.457 354.666V354.664ZM77.5915 350.032C77.3128 350.032 77.034 349.944 76.7957 349.763C76.3264 349.406 75.8594 349.046 75.3924 348.684C74.8206 348.238 74.7157 347.411 75.1637 346.837C75.6068 346.265 76.4336 346.158 77.0102 346.606C77.4652 346.961 77.9275 347.316 78.3897 347.666C78.9663 348.107 79.0806 348.931 78.6398 349.51C78.3801 349.851 77.9894 350.03 77.5915 350.03V350.032ZM315.273 347.318C314.887 347.318 314.504 347.149 314.244 346.823C313.791 346.253 313.886 345.427 314.453 344.974C314.909 344.614 315.356 344.25 315.807 343.885C316.371 343.428 317.198 343.509 317.66 344.073C318.118 344.638 318.034 345.467 317.47 345.925C317.015 346.296 316.555 346.666 316.093 347.033C315.852 347.226 315.561 347.318 315.273 347.318ZM68.0659 342.289C67.7586 342.289 67.4536 342.184 67.2035 341.967C66.7579 341.581 66.3148 341.193 65.874 340.802C65.3284 340.321 65.2783 339.487 65.7596 338.944C66.2433 338.4 67.0748 338.35 67.618 338.832C68.0517 339.215 68.4877 339.597 68.9284 339.978C69.4764 340.454 69.536 341.286 69.0595 341.834C68.7998 342.134 68.4329 342.289 68.0659 342.289ZM324.615 339.368C324.258 339.368 323.898 339.222 323.641 338.934C323.152 338.396 323.193 337.562 323.734 337.076C324.165 336.687 324.591 336.294 325.013 335.901C325.547 335.408 326.378 335.439 326.874 335.973C327.367 336.506 327.336 337.338 326.8 337.833C326.369 338.234 325.935 338.632 325.497 339.027C325.244 339.256 324.93 339.368 324.615 339.368ZM59.0479 333.962C58.7143 333.962 58.3808 333.835 58.1234 333.583L56.8726 332.339C56.3579 331.825 56.3579 330.991 56.8726 330.478C57.3872 329.964 58.2211 329.966 58.7334 330.478L59.9699 331.705C60.487 332.215 60.4941 333.049 59.9842 333.566C59.7269 333.828 59.3862 333.959 59.0479 333.959V333.962ZM333.438 330.843C333.107 330.843 332.778 330.719 332.521 330.471C331.999 329.966 331.987 329.132 332.494 328.61L333.7 327.355C334.2 326.828 335.032 326.807 335.561 327.31C336.087 327.812 336.106 328.644 335.606 329.17L334.381 330.443C334.124 330.71 333.781 330.843 333.438 330.843ZM50.5754 325.087C50.2133 325.087 49.8535 324.939 49.5962 324.648L48.4263 323.333C47.945 322.787 47.9951 321.956 48.5383 321.475C49.0839 320.993 49.9154 321.043 50.3967 321.589L51.5547 322.892C52.0407 323.433 51.9931 324.267 51.4522 324.751C51.202 324.975 50.8875 325.087 50.5754 325.087ZM341.708 321.775C341.405 321.775 341.1 321.672 340.855 321.46C340.302 320.989 340.235 320.157 340.707 319.604L341.836 318.272C342.303 317.715 343.135 317.646 343.69 318.113C344.245 318.582 344.317 319.411 343.847 319.966L342.709 321.31C342.449 321.615 342.079 321.772 341.708 321.772V321.775ZM42.6819 315.697C42.2936 315.697 41.91 315.525 41.6479 315.197C41.2833 314.734 40.9188 314.27 40.5614 313.803C40.1183 313.226 40.2279 312.399 40.8021 311.959C41.381 311.515 42.2078 311.625 42.6486 312.202C42.9988 312.659 43.3562 313.114 43.7136 313.569C44.1639 314.141 44.0662 314.968 43.4968 315.418C43.2561 315.609 42.9678 315.702 42.6819 315.702V315.697ZM349.392 312.202C349.118 312.202 348.839 312.116 348.603 311.937C348.022 311.501 347.905 310.674 348.341 310.093L349.382 308.692C349.813 308.108 350.638 307.982 351.224 308.416C351.81 308.847 351.934 309.671 351.503 310.257L350.447 311.673C350.187 312.016 349.794 312.199 349.394 312.199L349.392 312.202ZM35.4008 305.831C34.9814 305.831 34.5716 305.633 34.3167 305.261L33.3231 303.808C32.9157 303.205 33.073 302.388 33.6734 301.98C34.2786 301.573 35.0934 301.73 35.5008 302.333L36.4801 303.77C36.8922 304.368 36.7421 305.187 36.1441 305.599C35.9154 305.757 35.6557 305.833 35.3984 305.833L35.4008 305.831ZM356.458 302.157C356.211 302.157 355.96 302.085 355.734 301.94C355.127 301.54 354.96 300.722 355.36 300.117C355.679 299.631 355.996 299.145 356.308 298.657C356.701 298.047 357.514 297.868 358.129 298.263C358.739 298.657 358.915 299.471 358.524 300.084C358.202 300.579 357.883 301.075 357.557 301.568C357.304 301.952 356.885 302.159 356.456 302.159L356.458 302.157ZM28.7581 295.528C28.3102 295.528 27.8766 295.3 27.6288 294.89C27.3262 294.387 27.026 293.882 26.7282 293.374C26.3589 292.748 26.5709 291.94 27.1951 291.573C27.8265 291.206 28.6271 291.416 28.9964 292.043C29.2894 292.541 29.5849 293.038 29.8827 293.534C30.2568 294.156 30.0566 294.966 29.4324 295.34C29.2227 295.466 28.9868 295.528 28.7581 295.528ZM362.875 291.683C362.655 291.683 362.432 291.628 362.224 291.511C361.593 291.151 361.371 290.349 361.731 289.717L362.591 288.195C362.944 287.561 363.749 287.335 364.383 287.69C365.017 288.045 365.243 288.845 364.888 289.481L364.021 291.02C363.778 291.447 363.332 291.685 362.875 291.685V291.683ZM22.785 284.83C22.3085 284.83 21.8486 284.571 21.6151 284.118L20.8122 282.553C20.4834 281.905 20.7431 281.111 21.3888 280.785C22.044 280.451 22.8303 280.716 23.159 281.364L23.9501 282.91C24.2836 283.556 24.0311 284.349 23.3854 284.685C23.1924 284.785 22.9851 284.833 22.7826 284.833L22.785 284.83ZM368.617 280.818C368.424 280.818 368.228 280.775 368.04 280.685C367.387 280.366 367.116 279.579 367.435 278.924L368.195 277.352C368.505 276.696 369.291 276.415 369.949 276.73C370.606 277.042 370.885 277.828 370.57 278.483L369.801 280.077C369.572 280.544 369.105 280.816 368.617 280.816V280.818ZM17.5052 273.778C17.0001 273.778 16.5188 273.485 16.2996 272.991C16.0637 272.455 15.8302 271.917 15.5991 271.378C15.3132 270.709 15.6229 269.937 16.2901 269.651C16.9572 269.363 17.7339 269.675 18.0198 270.342C18.2485 270.873 18.4773 271.402 18.7108 271.931C19.0038 272.596 18.7012 273.373 18.0365 273.666C17.8626 273.742 17.6839 273.778 17.5052 273.778ZM373.656 269.603C373.489 269.603 373.32 269.572 373.156 269.503C372.484 269.227 372.162 268.457 372.438 267.786L373.094 266.168C373.365 265.493 374.132 265.165 374.804 265.434C375.479 265.703 375.81 266.47 375.538 267.145L374.871 268.786C374.661 269.296 374.173 269.603 373.654 269.603H373.656ZM12.9402 262.418C12.4041 262.418 11.899 262.086 11.7036 261.553L11.1032 259.892C10.8602 259.206 11.2199 258.455 11.9037 258.212C12.5923 257.967 13.3428 258.329 13.5858 259.013L14.1743 260.652C14.4245 261.333 14.0743 262.091 13.3905 262.341C13.2404 262.396 13.0879 262.422 12.9378 262.422L12.9402 262.418ZM377.971 258.084C377.833 258.084 377.69 258.062 377.551 258.015C376.863 257.783 376.491 257.035 376.725 256.347L377.277 254.684C377.506 253.993 378.245 253.619 378.94 253.845C379.631 254.071 380.005 254.815 379.779 255.506L379.222 257.185C379.036 257.736 378.523 258.084 377.973 258.084H377.971ZM9.10182 250.762C8.53238 250.762 8.00583 250.39 7.83905 249.816L7.34824 248.124C7.1481 247.426 7.55314 246.697 8.24885 246.497C8.94933 246.295 9.6784 246.7 9.87615 247.4L10.3622 249.075C10.5671 249.773 10.1668 250.505 9.46873 250.71C9.34484 250.745 9.22095 250.762 9.09943 250.762H9.10182ZM381.535 246.333C381.423 246.333 381.306 246.318 381.194 246.287C380.492 246.099 380.075 245.377 380.263 244.677L380.706 242.992C380.887 242.287 381.616 241.868 382.309 242.046C383.015 242.228 383.436 242.945 383.258 243.65L382.81 245.358C382.652 245.947 382.121 246.335 381.54 246.335L381.535 246.333ZM6.01399 238.882C5.41358 238.882 4.87035 238.468 4.73216 237.856L4.35095 236.131C4.19846 235.421 4.64877 234.72 5.36116 234.565C6.07355 234.415 6.77165 234.863 6.92652 235.575L7.30297 237.277C7.46498 237.987 7.01944 238.689 6.30943 238.849C6.21174 238.87 6.11406 238.882 6.01876 238.882H6.01399ZM384.332 234.384C384.246 234.384 384.158 234.375 384.073 234.358C383.36 234.215 382.898 233.522 383.041 232.809L383.377 231.101C383.513 230.386 384.201 229.919 384.916 230.055C385.631 230.191 386.098 230.882 385.962 231.594L385.624 233.326C385.497 233.95 384.949 234.384 384.335 234.384H384.332ZM3.69336 226.831C3.05959 226.831 2.49968 226.371 2.39723 225.723L2.12562 223.979C2.01602 223.26 2.5116 222.59 3.22875 222.481C3.95068 222.371 4.6178 222.867 4.7274 223.586L4.99425 225.306C5.11099 226.024 4.62018 226.7 3.90541 226.815C3.83393 226.827 3.76245 226.831 3.69574 226.831H3.69336ZM386.365 222.281C386.305 222.281 386.245 222.276 386.186 222.269C385.466 222.171 384.961 221.506 385.059 220.787L385.285 219.059C385.376 218.337 386.029 217.825 386.758 217.92C387.477 218.011 387.987 218.671 387.897 219.391L387.668 221.142C387.577 221.802 387.013 222.281 386.365 222.281ZM2.1423 214.661C1.47041 214.661 0.898588 214.151 0.831875 213.467L0.674625 211.709C0.612678 210.985 1.14876 210.349 1.87545 210.287C2.58307 210.232 3.2359 210.761 3.29785 211.487L3.4551 213.222C3.52181 213.946 2.99049 214.587 2.26619 214.656C2.22569 214.661 2.1828 214.663 2.13991 214.663L2.1423 214.661ZM387.627 210.077C387.594 210.077 387.563 210.077 387.53 210.075C386.805 210.02 386.26 209.391 386.312 208.667C386.355 208.09 386.396 207.511 386.429 206.932C386.474 206.205 387.091 205.648 387.825 205.7C388.552 205.745 389.105 206.37 389.059 207.094C389.021 207.682 388.983 208.271 388.94 208.859C388.888 209.553 388.311 210.079 387.63 210.079L387.627 210.077ZM1.36319 202.415C0.655564 202.415 0.0718318 201.852 0.0480059 201.14L0.000354306 199.379C-0.0163238 198.653 0.557878 198.05 1.28457 198.033C2.04699 198.004 2.61405 198.591 2.63072 199.317L2.67838 201.054C2.69982 201.781 2.13276 202.388 1.40608 202.412C1.39178 202.412 1.37749 202.412 1.36319 202.412V202.415ZM388.118 197.816H388.106C387.38 197.809 386.796 197.216 386.803 196.489L386.812 194.359C386.812 193.632 387.401 193.044 388.128 193.044C388.854 193.044 389.443 193.632 389.443 194.359L389.433 196.513C389.426 197.235 388.838 197.819 388.118 197.819V197.816ZM1.3489 190.147C1.33698 190.147 1.32269 190.147 1.31077 190.147C0.584087 190.125 0.0122672 189.52 0.0313279 188.793C0.0480059 188.203 0.0718318 187.614 0.0956576 187.026C0.126631 186.299 0.738955 185.727 1.46564 185.765C2.18995 185.794 2.757 186.408 2.72603 187.135C2.7022 187.714 2.68314 188.293 2.66646 188.872C2.64502 189.584 2.0589 190.149 1.35128 190.149L1.3489 190.147ZM387.823 185.158C387.129 185.158 386.55 184.617 386.51 183.914L386.407 182.175C386.36 181.45 386.91 180.824 387.634 180.776C388.359 180.731 388.988 181.279 389.033 182.005L389.14 183.769C389.181 184.495 388.623 185.115 387.899 185.155C387.873 185.155 387.849 185.155 387.823 185.155V185.158ZM2.10179 177.898C2.06129 177.898 2.0184 177.898 1.97551 177.893C1.25121 177.824 0.719894 177.183 0.786606 176.459L0.960535 174.703C1.03678 173.981 1.65863 173.457 2.40438 173.528C3.12868 173.602 3.65285 174.25 3.57899 174.972L3.40983 176.707C3.3455 177.388 2.7713 177.9 2.09941 177.9L2.10179 177.898ZM386.755 172.933C386.098 172.933 385.531 172.442 385.452 171.775L385.235 170.042C385.145 169.321 385.652 168.663 386.374 168.57C387.11 168.477 387.756 168.989 387.847 169.709L388.063 171.458C388.151 172.18 387.637 172.835 386.915 172.923C386.862 172.93 386.808 172.933 386.755 172.933ZM3.62664 165.723C3.55755 165.723 3.48845 165.718 3.42174 165.706C2.70458 165.592 2.21139 164.92 2.32575 164.2L2.6069 162.461C2.72603 161.744 3.40506 161.26 4.11746 161.375C4.83461 161.491 5.32066 162.168 5.20391 162.885L4.92515 164.608C4.8227 165.256 4.26279 165.72 3.62664 165.72V165.723ZM384.918 160.803C384.296 160.803 383.744 160.36 383.627 159.726L383.303 158.015C383.165 157.3 383.629 156.612 384.344 156.471C385.04 156.333 385.747 156.798 385.886 157.512L386.212 159.247C386.343 159.962 385.874 160.648 385.159 160.781C385.076 160.796 384.997 160.803 384.918 160.803ZM5.92107 153.667C5.82577 153.667 5.73046 153.657 5.63278 153.636C4.92277 153.479 4.47484 152.776 4.63448 152.066L5.0276 150.343C5.192 149.633 5.89724 149.197 6.60725 149.359C7.31488 149.524 7.75566 150.231 7.59126 150.939L7.20528 152.635C7.06709 153.25 6.52386 153.667 5.92107 153.667ZM382.309 148.809C381.721 148.809 381.185 148.411 381.035 147.813L380.603 146.126C380.42 145.423 380.842 144.704 381.545 144.52C382.25 144.337 382.967 144.759 383.15 145.461L383.589 147.172C383.765 147.877 383.336 148.592 382.633 148.768C382.526 148.795 382.417 148.809 382.312 148.809H382.309ZM8.97554 141.783C8.85403 141.783 8.72775 141.766 8.60624 141.73C7.90814 141.525 7.51025 140.794 7.71277 140.096L8.21311 138.407C8.42278 137.711 9.14947 137.313 9.85233 137.525C10.548 137.735 10.9436 138.469 10.7339 139.164L10.2359 140.837C10.0691 141.411 9.54259 141.783 8.97316 141.783H8.97554ZM378.945 137.01C378.388 137.01 377.871 136.653 377.69 136.095L377.151 134.44C376.922 133.749 377.296 133.005 377.987 132.777C378.674 132.548 379.422 132.922 379.65 133.613L380.198 135.293C380.42 135.986 380.036 136.724 379.345 136.946C379.212 136.989 379.076 137.008 378.945 137.008V137.01ZM12.7972 130.096C12.6471 130.096 12.4946 130.07 12.3493 130.017C11.6655 129.77 11.3129 129.014 11.5606 128.331L12.1706 126.67C12.4231 125.989 13.1808 125.641 13.8622 125.893C14.5436 126.146 14.8915 126.903 14.6389 127.585L14.0361 129.229C13.8408 129.763 13.3357 130.096 12.7996 130.096H12.7972ZM374.833 125.448C374.309 125.448 373.811 125.131 373.608 124.614L372.965 122.994C372.693 122.319 373.022 121.552 373.696 121.281C374.366 121.014 375.135 121.335 375.409 122.012L376.06 123.651C376.324 124.328 375.993 125.093 375.317 125.357C375.159 125.419 374.997 125.45 374.835 125.45L374.833 125.448ZM17.3575 118.676C17.1812 118.676 17.0025 118.641 16.8309 118.567C16.1662 118.276 15.8612 117.499 16.1519 116.835L16.869 115.215C17.1692 114.55 17.9531 114.257 18.6083 114.552C19.2707 114.85 19.5685 115.629 19.2707 116.291L18.5654 117.888C18.3486 118.381 17.8673 118.676 17.3598 118.676H17.3575ZM369.996 114.19C369.501 114.19 369.027 113.909 368.803 113.43L368.062 111.862C367.747 111.207 368.023 110.421 368.679 110.106C369.336 109.792 370.12 110.071 370.435 110.723L371.19 112.315C371.497 112.972 371.214 113.756 370.554 114.064C370.373 114.147 370.184 114.188 369.999 114.188L369.996 114.19ZM22.6373 107.574C22.4347 107.574 22.2275 107.526 22.0369 107.426C21.3912 107.092 21.1362 106.299 21.4722 105.653L22.287 104.085C22.6254 103.442 23.4164 103.194 24.0668 103.533C24.7101 103.871 24.9555 104.667 24.6196 105.31L23.8095 106.861C23.576 107.314 23.1162 107.574 22.6396 107.574H22.6373ZM364.457 103.263C363.99 103.263 363.539 103.016 363.299 102.577L362.46 101.06C362.105 100.426 362.331 99.6229 362.965 99.2679C363.604 98.9153 364.402 99.1392 364.757 99.773L365.61 101.315C365.958 101.953 365.724 102.751 365.086 103.101C364.886 103.211 364.669 103.263 364.457 103.263ZM28.6104 96.8353C28.3817 96.8353 28.1482 96.7757 27.9361 96.647C27.3119 96.273 27.1094 95.4653 27.4834 94.841L28.3983 93.3305C28.7772 92.711 29.5873 92.5133 30.2091 92.8921C30.8286 93.2709 31.0263 94.081 30.6475 94.7005L29.7397 96.1967C29.4943 96.6089 29.0583 96.8353 28.6104 96.8353ZM358.229 92.7086C357.793 92.7086 357.364 92.4918 357.114 92.0963C356.804 91.6079 356.494 91.1195 356.177 90.6334C355.784 90.0235 355.958 89.2086 356.568 88.8131C357.178 88.4176 357.993 88.5939 358.388 89.2039C358.708 89.6971 359.024 90.1926 359.337 90.6906C359.725 91.3053 359.541 92.1178 358.929 92.5061C358.71 92.6443 358.467 92.711 358.226 92.711L358.229 92.7086ZM35.2507 86.502C34.9933 86.502 34.7336 86.4258 34.5049 86.2685C33.9069 85.8563 33.7568 85.0367 34.169 84.4387L35.1768 82.9877C35.5961 82.3921 36.4134 82.2467 37.0114 82.6661C37.607 83.083 37.75 83.905 37.333 84.4983L36.3347 85.9326C36.0798 86.3019 35.6676 86.502 35.2507 86.502ZM351.341 82.5636C350.933 82.5636 350.531 82.3754 350.276 82.0204L349.246 80.617C348.815 80.0333 348.939 79.2089 349.525 78.7753C350.111 78.3441 350.933 78.4703 351.367 79.0541L352.408 80.4741C352.834 81.0626 352.703 81.8846 352.115 82.3134C351.881 82.4826 351.612 82.5636 351.343 82.5636H351.341ZM42.5294 76.6143C42.2459 76.6143 41.9576 76.5214 41.717 76.3332C41.1452 75.8828 41.0475 75.0561 41.4954 74.4843C41.8599 74.022 42.2268 73.5598 42.5961 73.1C43.0536 72.5329 43.8827 72.4448 44.4474 72.8975C45.0145 73.3525 45.105 74.1817 44.6499 74.7487L43.5659 76.114C43.3062 76.4451 42.9202 76.6167 42.5294 76.6167V76.6143ZM343.826 72.8713C343.449 72.8713 343.073 72.7092 342.813 72.3947L341.696 71.0557C341.229 70.4982 341.3 69.6691 341.858 69.2021C342.413 68.7351 343.245 68.8066 343.712 69.3617L344.839 70.7126C345.303 71.2726 345.227 72.1017 344.665 72.5663C344.419 72.7712 344.121 72.8689 343.826 72.8689V72.8713ZM50.4182 67.2079C50.106 67.2079 49.7915 67.0983 49.5414 66.8743C48.9981 66.3906 48.9529 65.5591 49.4342 65.0159C49.8273 64.5775 50.2204 64.1391 50.6159 63.7031C51.1067 63.1646 51.9406 63.1289 52.4743 63.6173C53.0128 64.1057 53.0509 64.9396 52.5625 65.4757L51.3974 66.7695C51.1377 67.0602 50.7779 67.2102 50.4158 67.2102L50.4182 67.2079ZM335.716 63.6697C335.365 63.6697 335.015 63.5292 334.755 63.2528C334.36 62.8311 333.96 62.4094 333.557 61.99C333.054 61.4658 333.073 60.6319 333.598 60.1292C334.122 59.6265 334.956 59.6432 335.458 60.1697C335.866 60.5962 336.271 61.0227 336.673 61.4515C337.171 61.9805 337.145 62.8144 336.614 63.3123C336.361 63.5506 336.037 63.6673 335.713 63.6673L335.716 63.6697ZM58.8835 58.3185C58.5452 58.3185 58.2021 58.1874 57.9471 57.9253C57.4373 57.4083 57.4444 56.5744 57.9614 56.0645L59.2218 54.8327C59.7436 54.3276 60.5751 54.3372 61.0826 54.8589C61.5877 55.3807 61.5758 56.2146 61.054 56.7197L59.8079 57.9396C59.5506 58.1922 59.2194 58.3185 58.8835 58.3185ZM327.036 54.9924C326.712 54.9924 326.388 54.8732 326.135 54.635C325.714 54.2371 325.289 53.844 324.863 53.4508C324.329 52.9576 324.294 52.1261 324.787 51.59C325.282 51.0563 326.116 51.023 326.645 51.5138C327.079 51.9141 327.51 52.3143 327.939 52.717C328.468 53.215 328.494 54.0489 327.996 54.5778C327.736 54.8518 327.389 54.9924 327.038 54.9924H327.036ZM67.8873 49.9818C67.5203 49.9818 67.1534 49.8293 66.8937 49.5291C66.4172 48.9811 66.4744 48.1496 67.0248 47.6731C67.4679 47.2871 67.9135 46.9035 68.3638 46.5199C68.9189 46.0505 69.7504 46.1149 70.2198 46.67C70.6916 47.2228 70.6248 48.0543 70.0697 48.526C69.6265 48.9025 69.1881 49.2789 68.7521 49.6601C68.5043 49.877 68.1946 49.9842 67.8873 49.9842V49.9818ZM317.825 46.8773C317.529 46.8773 317.232 46.7796 316.986 46.5747L315.638 45.4716C315.073 45.0141 314.987 44.185 315.445 43.6203C315.9 43.0556 316.734 42.9699 317.296 43.4273L318.661 44.5471C319.221 45.0093 319.3 45.8385 318.837 46.4008C318.578 46.7153 318.201 46.8797 317.822 46.8797L317.825 46.8773ZM77.3961 42.2336C76.9982 42.2336 76.6075 42.0549 76.3478 41.7166C75.907 41.1377 76.019 40.3133 76.5956 39.8725L78.0013 38.8099C78.5851 38.3715 79.4094 38.493 79.843 39.072C80.2791 39.6533 80.1623 40.4777 79.581 40.9161L78.1919 41.9668C77.9537 42.1479 77.6725 42.236 77.3961 42.236V42.2336ZM308.116 39.3602C307.849 39.3602 307.58 39.2792 307.346 39.1101L305.926 38.0903C305.335 37.6686 305.197 36.8466 305.619 36.2557C306.041 35.6625 306.86 35.5243 307.456 35.9484L308.888 36.9777C309.476 37.4041 309.61 38.2261 309.183 38.8146C308.926 39.1696 308.523 39.3602 308.116 39.3602ZM87.372 35.105C86.9479 35.105 86.5286 34.9001 86.276 34.5188C85.8734 33.9137 86.0354 33.0964 86.6382 32.6938L88.1082 31.7217C88.7206 31.3214 89.533 31.493 89.9309 32.1005C90.3312 32.7081 90.1596 33.5253 89.5521 33.9232L88.1011 34.8834C87.8747 35.0335 87.6222 35.105 87.372 35.105ZM297.949 32.4698C297.709 32.4698 297.463 32.4031 297.246 32.2649L295.769 31.3405C295.152 30.9569 294.962 30.1444 295.345 29.5273C295.729 28.9102 296.539 28.7196 297.158 29.1032L298.657 30.042C299.272 30.4303 299.453 31.2452 299.064 31.8575C298.814 32.253 298.388 32.4698 297.949 32.4698ZM97.7744 28.622C97.3193 28.622 96.8785 28.3861 96.6355 27.9667C96.271 27.3377 96.4854 26.5324 97.1144 26.1679L98.6392 25.2911C99.273 24.9313 100.076 25.1553 100.436 25.7843C100.793 26.4157 100.574 27.2186 99.9425 27.5784L98.4343 28.4433C98.2271 28.5648 97.9983 28.622 97.7767 28.622H97.7744ZM287.361 26.2346C287.149 26.2346 286.932 26.1822 286.732 26.0726L285.195 25.2411C284.554 24.898 284.314 24.0998 284.657 23.4589C284.998 22.8204 285.793 22.5773 286.439 22.9204L287.993 23.7615C288.631 24.1093 288.865 24.9099 288.517 25.5484C288.276 25.9844 287.826 26.2346 287.359 26.2346H287.361ZM108.565 22.8132C108.081 22.8132 107.617 22.5464 107.386 22.0842C107.059 21.4337 107.326 20.6427 107.974 20.3187L109.551 19.5419C110.207 19.2203 110.993 19.4943 111.312 20.1471C111.631 20.7999 111.36 21.5886 110.707 21.9078L109.151 22.675C108.963 22.768 108.763 22.8132 108.565 22.8132ZM276.399 20.6832C276.213 20.6832 276.022 20.6427 275.844 20.5593L274.255 19.8278C273.592 19.5253 273.302 18.7438 273.604 18.0838C273.907 17.4214 274.693 17.1308 275.348 17.4334L276.954 18.1743C277.614 18.4817 277.898 19.2632 277.593 19.9231C277.369 20.402 276.894 20.6832 276.399 20.6832ZM119.692 17.7026C119.179 17.7026 118.691 17.4 118.479 16.8973C118.198 16.2278 118.512 15.4558 119.182 15.1747L120.804 14.5004C121.486 14.2264 122.246 14.5457 122.522 15.2175C122.801 15.8894 122.477 16.659 121.805 16.9354L120.202 17.6001C120.035 17.6716 119.863 17.705 119.692 17.705V17.7026ZM265.096 15.8418C264.936 15.8418 264.777 15.8132 264.617 15.7512L262.985 15.1222C262.304 14.8649 261.963 14.1025 262.223 13.4235C262.482 12.742 263.242 12.4037 263.921 12.661L265.572 13.2972C266.249 13.5617 266.585 14.3241 266.321 15.0031C266.118 15.5225 265.622 15.8418 265.096 15.8418ZM131.142 13.3067C130.597 13.3067 130.089 12.966 129.901 12.4228C129.66 11.7366 130.025 10.9861 130.711 10.7478L132.381 10.176C133.07 9.94251 133.816 10.3142 134.052 11.0004C134.283 11.6889 133.913 12.4347 133.225 12.6682L131.576 13.2329C131.433 13.2829 131.288 13.3067 131.145 13.3067H131.142ZM253.502 11.7294C253.371 11.7294 253.235 11.7104 253.102 11.6675C252.547 11.4912 251.992 11.3173 251.432 11.1457C250.738 10.9313 250.348 10.1951 250.562 9.49935C250.779 8.80364 251.518 8.41528 252.209 8.62971C252.773 8.80364 253.34 8.97995 253.903 9.16103C254.596 9.38261 254.979 10.1236 254.758 10.8145C254.579 11.3744 254.06 11.7318 253.502 11.7318V11.7294ZM142.855 9.64946C142.279 9.64946 141.75 9.26824 141.588 8.68451C141.392 7.98403 141.804 7.25973 142.503 7.06435C143.07 6.9071 143.637 6.75224 144.209 6.59975C144.907 6.41391 145.631 6.82848 145.819 7.53134C146.007 8.2342 145.59 8.95612 144.888 9.14197L143.21 9.59942C143.091 9.63278 142.974 9.64707 142.858 9.64707L142.855 9.64946ZM241.689 8.37716C241.582 8.37716 241.475 8.36524 241.368 8.33665L239.676 7.92208C238.969 7.75292 238.533 7.04053 238.702 6.33528C238.873 5.62766 239.598 5.19403 240.288 5.36319L242.004 5.78253C242.709 5.95884 243.138 6.67361 242.962 7.37886C242.812 7.97688 242.276 8.37716 241.687 8.37716H241.689ZM154.775 6.74747C154.165 6.74747 153.617 6.32099 153.489 5.70152C153.339 4.99151 153.796 4.29341 154.506 4.14331L156.236 3.78831C156.948 3.64535 157.641 4.10757 157.784 4.81996C157.927 5.53235 157.465 6.22569 156.753 6.36864L155.047 6.71888C154.954 6.73794 154.863 6.74747 154.775 6.74747ZM229.693 5.78491C229.615 5.78491 229.534 5.77776 229.452 5.76347L227.739 5.45849C227.022 5.3346 226.543 4.65318 226.667 3.93603C226.794 3.21887 227.48 2.73759 228.19 2.86386L229.929 3.1736C230.644 3.30464 231.116 3.99082 230.984 4.7056C230.868 5.33937 230.315 5.78491 229.693 5.78491ZM166.857 4.6103C166.214 4.6103 165.652 4.13854 165.556 3.48095C165.452 2.76141 165.952 2.09429 166.671 1.98946L168.418 1.74643C169.154 1.65113 169.8 2.15385 169.898 2.87339C169.995 3.59293 169.49 4.25767 168.771 4.35536L167.046 4.596C166.981 4.60553 166.919 4.6103 166.857 4.6103ZM217.559 3.96223C217.506 3.96223 217.456 3.95985 217.404 3.9527L215.672 3.75733C214.95 3.67871 214.428 3.03064 214.504 2.30634C214.58 1.58203 215.226 1.06025 215.955 1.13887L217.709 1.33663C218.433 1.4224 218.948 2.07523 218.864 2.79715C218.786 3.46666 218.216 3.95985 217.559 3.95985V3.96223ZM179.051 3.24746C178.372 3.24746 177.796 2.72567 177.741 2.03711C177.684 1.3128 178.225 0.679036 178.949 0.619471L180.71 0.486047C181.427 0.421717 182.065 0.981624 182.115 1.70593C182.168 2.43023 181.62 3.05924 180.895 3.11165L179.159 3.24269C179.123 3.24508 179.089 3.24746 179.051 3.24746ZM205.331 2.9139C205.307 2.9139 205.284 2.9139 205.26 2.9139L203.518 2.82812C202.791 2.79477 202.232 2.18006 202.262 1.45337C202.296 0.726687 202.894 0.166781 203.637 0.197754L205.398 0.28591C206.125 0.324031 206.682 0.945885 206.642 1.67019C206.604 2.37305 206.022 2.91628 205.329 2.91628L205.331 2.9139ZM191.31 2.6542C190.593 2.6542 190.006 2.07999 189.995 1.36045C189.983 0.633767 190.562 0.0333561 191.288 0.0214432L193.049 0H193.061C193.783 0 194.371 0.58135 194.376 1.30565C194.383 2.03234 193.8 2.62799 193.073 2.63275L191.331 2.6542H191.31Z" fill="#FF3C65"/>
<path d="M191.732 373.089H191.711C191.122 373.079 190.536 373.067 189.95 373.05C189.223 373.031 188.649 372.426 188.668 371.699C188.687 370.973 189.319 370.38 190.019 370.418C190.596 370.432 191.175 370.446 191.751 370.453C192.48 370.465 193.059 371.063 193.048 371.79C193.036 372.51 192.449 373.084 191.732 373.084V373.089ZM202.206 372.957C201.506 372.957 200.922 372.405 200.893 371.697C200.862 370.97 201.427 370.358 202.154 370.327L203.883 370.246C204.593 370.213 205.23 370.766 205.265 371.492C205.303 372.219 204.744 372.836 204.019 372.874L202.261 372.955C202.242 372.955 202.223 372.955 202.204 372.955L202.206 372.957ZM179.533 372.474C179.495 372.474 179.457 372.474 179.419 372.469C178.833 372.419 178.249 372.367 177.666 372.312C176.941 372.243 176.412 371.599 176.479 370.878C176.551 370.156 177.182 369.617 177.916 369.693C178.49 369.748 179.067 369.801 179.641 369.848C180.365 369.91 180.901 370.546 180.842 371.271C180.784 371.957 180.21 372.476 179.531 372.476L179.533 372.474ZM214.391 372.031C213.728 372.031 213.159 371.533 213.085 370.858C213.004 370.137 213.526 369.486 214.248 369.405L215.97 369.205C216.676 369.119 217.347 369.631 217.433 370.353C217.521 371.075 217.007 371.73 216.285 371.819L214.538 372.021C214.488 372.026 214.438 372.028 214.391 372.028V372.031ZM167.401 371.023C167.335 371.023 167.266 371.018 167.199 371.009L165.462 370.73C164.745 370.611 164.259 369.934 164.378 369.217C164.497 368.5 165.181 368.014 165.891 368.133L167.602 368.407C168.321 368.519 168.814 369.191 168.702 369.91C168.602 370.561 168.04 371.025 167.404 371.025L167.401 371.023ZM226.482 370.268C225.858 370.268 225.305 369.822 225.189 369.186C225.06 368.471 225.534 367.785 226.249 367.656L227.955 367.339C228.653 367.199 229.358 367.671 229.494 368.385C229.632 369.1 229.163 369.789 228.448 369.924L226.718 370.246C226.64 370.26 226.561 370.268 226.482 370.268ZM155.398 368.738C155.3 368.738 155.203 368.728 155.105 368.705C154.535 368.576 153.961 368.443 153.392 368.307C152.684 368.14 152.246 367.43 152.415 366.722C152.582 366.015 153.299 365.576 153.999 365.745L155.686 366.136C156.394 366.296 156.839 367.001 156.677 367.711C156.539 368.321 155.996 368.738 155.396 368.738H155.398ZM238.421 367.673C237.835 367.673 237.299 367.277 237.149 366.682C236.97 365.977 237.397 365.262 238.1 365.081L239.777 364.645C240.478 364.456 241.199 364.881 241.385 365.581C241.571 366.284 241.152 367.003 240.449 367.189L238.748 367.63C238.641 367.659 238.531 367.671 238.421 367.671V367.673ZM143.58 365.626C143.456 365.626 143.328 365.607 143.199 365.569L141.512 365.052C140.819 364.835 140.431 364.099 140.647 363.403C140.862 362.71 141.598 362.319 142.294 362.538L143.959 363.048C144.657 363.258 145.05 363.992 144.841 364.688C144.669 365.257 144.147 365.624 143.58 365.624V365.626ZM250.153 364.256C249.6 364.256 249.086 363.906 248.905 363.351C248.676 362.66 249.052 361.917 249.741 361.688C250.291 361.507 250.839 361.323 251.385 361.138C252.071 360.899 252.822 361.271 253.055 361.957C253.291 362.646 252.922 363.394 252.233 363.627C251.678 363.816 251.123 364.004 250.563 364.187C250.427 364.232 250.289 364.254 250.151 364.254L250.153 364.256ZM131.982 361.69C131.827 361.69 131.67 361.662 131.515 361.604C130.965 361.395 130.414 361.185 129.866 360.971C129.19 360.706 128.854 359.944 129.118 359.267C129.385 358.588 130.145 358.255 130.824 358.519L132.449 359.143C133.13 359.401 133.471 360.161 133.214 360.84C133.016 361.366 132.516 361.69 131.984 361.69H131.982ZM261.621 360.03C261.101 360.03 260.61 359.72 260.403 359.21C260.129 358.538 260.451 357.769 261.125 357.495L262.719 356.835C263.391 356.551 264.163 356.868 264.442 357.537C264.723 358.207 264.408 358.979 263.736 359.26L262.119 359.93C261.957 359.996 261.787 360.027 261.621 360.027V360.03ZM120.691 356.958C120.505 356.958 120.319 356.92 120.138 356.837L118.542 356.091C117.884 355.779 117.603 354.995 117.915 354.338C118.225 353.682 119.009 353.399 119.669 353.711L121.244 354.447C121.904 354.752 122.192 355.534 121.887 356.194C121.665 356.675 121.189 356.958 120.693 356.958H120.691ZM272.742 355.029C272.256 355.029 271.787 354.759 271.561 354.292C271.241 353.64 271.508 352.851 272.161 352.529L273.707 351.76C274.358 351.431 275.149 351.693 275.475 352.343C275.802 352.991 275.54 353.785 274.892 354.111L273.321 354.893C273.136 354.983 272.935 355.029 272.742 355.029ZM109.76 351.455C109.548 351.455 109.331 351.402 109.131 351.293C108.614 351.009 108.097 350.726 107.584 350.437C106.953 350.082 106.727 349.279 107.084 348.646C107.441 348.014 108.235 347.785 108.876 348.143C109.378 348.426 109.883 348.705 110.391 348.984C111.03 349.332 111.263 350.132 110.915 350.771C110.675 351.209 110.224 351.457 109.76 351.457V351.455ZM283.5 349.265C283.045 349.265 282.606 349.032 282.361 348.61C281.996 347.981 282.208 347.176 282.837 346.811L284.329 345.934C284.956 345.563 285.763 345.77 286.133 346.394C286.504 347.018 286.299 347.826 285.673 348.198L284.162 349.086C283.953 349.208 283.726 349.265 283.502 349.265H283.5ZM99.2405 345.21C98.9975 345.21 98.7497 345.143 98.5305 345L97.0557 344.045C96.4481 343.647 96.2766 342.832 96.6745 342.222C97.07 341.615 97.8848 341.443 98.4971 341.841L99.9553 342.787C100.568 343.18 100.744 343.995 100.351 344.607C100.098 344.998 99.6765 345.212 99.2429 345.212L99.2405 345.21ZM293.838 342.775C293.416 342.775 293.002 342.572 292.749 342.198C292.339 341.598 292.496 340.778 293.099 340.371L294.526 339.394C295.127 338.979 295.946 339.132 296.359 339.728C296.771 340.326 296.623 341.145 296.025 341.557L294.576 342.549C294.35 342.703 294.093 342.775 293.84 342.775H293.838ZM89.1789 338.258C88.9072 338.258 88.6332 338.174 88.395 337.998C87.9232 337.648 87.4539 337.295 86.9869 336.94C86.4079 336.499 86.2935 335.675 86.7343 335.096C87.1727 334.519 88.0019 334.403 88.5784 334.843C89.0383 335.194 89.5029 335.539 89.9675 335.885C90.5512 336.318 90.6727 337.143 90.2391 337.726C89.9794 338.074 89.5839 338.258 89.1789 338.258ZM303.709 335.584C303.318 335.584 302.93 335.41 302.672 335.079C302.225 334.507 302.322 333.681 302.894 333.23L304.252 332.156C304.817 331.703 305.651 331.796 306.101 332.363C306.556 332.93 306.463 333.759 305.894 334.212L304.517 335.301C304.276 335.489 303.988 335.582 303.707 335.582L303.709 335.584ZM79.6271 330.631C79.3245 330.631 79.0195 330.526 78.7694 330.314L77.4399 329.163C76.8919 328.684 76.8347 327.855 77.3136 327.307C77.7925 326.759 78.6216 326.702 79.172 327.181L80.4848 328.315C81.0376 328.789 81.0995 329.618 80.6278 330.171C80.3681 330.474 79.9988 330.631 79.6295 330.631H79.6271ZM313.065 327.731C312.706 327.731 312.348 327.584 312.086 327.295C311.6 326.754 311.643 325.923 312.184 325.437L313.466 324.272C313.999 323.781 314.831 323.814 315.324 324.35C315.815 324.887 315.779 325.718 315.243 326.209L313.944 327.391C313.692 327.617 313.377 327.729 313.063 327.729L313.065 327.731ZM70.6209 322.371C70.2897 322.371 69.9538 322.244 69.6965 321.992L68.4504 320.755C67.9358 320.24 67.9358 319.407 68.4504 318.894C68.9674 318.38 69.7989 318.382 70.3112 318.894L71.543 320.117C72.06 320.626 72.0672 321.46 71.5573 321.977C71.2976 322.239 70.9593 322.371 70.6185 322.371H70.6209ZM321.859 319.254C321.528 319.254 321.197 319.13 320.942 318.882C320.42 318.375 320.408 317.543 320.916 317.022C321.319 316.607 321.719 316.19 322.117 315.771C322.617 315.242 323.449 315.223 323.978 315.723C324.504 316.223 324.526 317.057 324.025 317.584C323.62 318.01 323.215 318.432 322.805 318.854C322.546 319.118 322.205 319.254 321.862 319.254H321.859ZM62.2033 313.514C61.8387 313.514 61.479 313.364 61.2169 313.071L60.0589 311.751C59.58 311.203 59.6396 310.372 60.1876 309.895C60.7356 309.419 61.5647 309.474 62.0436 310.024L63.1873 311.327C63.6685 311.87 63.6185 312.702 63.0753 313.186C62.8227 313.407 62.5106 313.517 62.2009 313.517L62.2033 313.514ZM330.06 310.188C329.76 310.188 329.46 310.086 329.212 309.879C328.657 309.409 328.585 308.58 329.055 308.025L330.17 306.693C330.634 306.133 331.466 306.057 332.024 306.519C332.583 306.984 332.662 307.813 332.197 308.373L331.07 309.721C330.811 310.031 330.439 310.188 330.065 310.188H330.06ZM54.4194 304.103C54.0262 304.103 53.6355 303.927 53.3758 303.591C53.0184 303.126 52.661 302.662 52.3108 302.192C51.8724 301.611 51.9891 300.787 52.5705 300.348C53.1542 299.91 53.9786 300.029 54.4122 300.608C54.7601 301.068 55.1103 301.525 55.4606 301.983C55.9037 302.559 55.7989 303.386 55.2223 303.829C54.9817 304.015 54.7005 304.103 54.4194 304.103ZM337.62 300.579C337.351 300.579 337.079 300.496 336.843 300.324C336.257 299.896 336.131 299.071 336.56 298.485C336.901 298.018 337.241 297.551 337.577 297.082C337.999 296.491 338.823 296.355 339.412 296.779C340.003 297.203 340.139 298.025 339.714 298.616C339.374 299.093 339.028 299.569 338.68 300.043C338.423 300.396 338.025 300.582 337.618 300.582L337.62 300.579ZM47.2978 294.182C46.8737 294.182 46.4544 293.977 46.2018 293.596C45.8778 293.11 45.5538 292.622 45.2345 292.131C44.8366 291.521 45.0082 290.706 45.6181 290.31C46.2257 289.913 47.0429 290.084 47.4384 290.694C47.7529 291.175 48.0698 291.659 48.3914 292.138C48.7941 292.743 48.6321 293.56 48.0269 293.963C47.8029 294.113 47.548 294.185 47.2978 294.185V294.182ZM344.501 290.47C344.26 290.47 344.017 290.403 343.798 290.265C343.184 289.877 343.002 289.064 343.391 288.45C343.701 287.961 344.006 287.47 344.31 286.977C344.692 286.36 345.502 286.167 346.121 286.551C346.741 286.932 346.929 287.744 346.548 288.362C346.24 288.862 345.928 289.36 345.614 289.855C345.364 290.251 344.937 290.468 344.501 290.468V290.47ZM40.8792 283.799C40.4217 283.799 39.9785 283.561 39.7355 283.137C39.4448 282.629 39.1565 282.119 38.8706 281.609C38.518 280.976 38.7444 280.173 39.3805 279.818C40.0167 279.463 40.8172 279.694 41.1722 280.325C41.451 280.828 41.7369 281.331 42.0228 281.828C42.3826 282.46 42.1634 283.263 41.532 283.625C41.3271 283.742 41.1007 283.799 40.8815 283.799H40.8792ZM350.674 279.908C350.465 279.908 350.25 279.858 350.053 279.751C349.414 279.405 349.173 278.61 349.519 277.969L350.336 276.434C350.674 275.793 351.47 275.543 352.113 275.884C352.757 276.222 353.002 277.018 352.664 277.661L351.837 279.215C351.601 279.656 351.146 279.908 350.677 279.908H350.674ZM35.1943 273.003C34.7035 273.003 34.2341 272.729 34.0054 272.26L33.2501 270.68C32.938 270.023 33.2192 269.239 33.8767 268.927C34.5343 268.615 35.3206 268.898 35.6303 269.553L36.3785 271.114C36.693 271.769 36.419 272.556 35.7661 272.872C35.5803 272.961 35.3873 273.003 35.1943 273.003ZM356.104 268.939C355.923 268.939 355.74 268.901 355.563 268.822C354.901 268.522 354.606 267.743 354.906 267.08C355.144 266.554 355.38 266.025 355.613 265.494C355.904 264.826 356.683 264.529 357.348 264.817C358.013 265.11 358.315 265.887 358.022 266.551C357.786 267.09 357.546 267.628 357.305 268.162C357.086 268.648 356.607 268.936 356.104 268.936V268.939ZM30.2695 261.846C29.7477 261.846 29.2522 261.534 29.0473 261.017L28.4016 259.38C28.1395 258.703 28.4731 257.938 29.1521 257.676C29.8216 257.414 30.5912 257.748 30.8556 258.427L31.4918 260.04C31.7634 260.714 31.4346 261.481 30.7579 261.75C30.5983 261.815 30.4315 261.846 30.2695 261.846ZM360.757 257.617C360.605 257.617 360.45 257.59 360.298 257.533C359.616 257.281 359.268 256.521 359.523 255.842C359.726 255.298 359.924 254.755 360.119 254.21C360.362 253.526 361.112 253.168 361.801 253.414C362.485 253.659 362.842 254.412 362.597 255.096C362.399 255.651 362.197 256.206 361.989 256.759C361.791 257.288 361.289 257.617 360.755 257.617H360.757ZM26.1238 250.352C25.5663 250.352 25.0517 249.997 24.8706 249.44L24.3417 247.762C24.1248 247.069 24.5132 246.33 25.2065 246.114C25.907 245.894 26.6385 246.285 26.8529 246.978L27.3747 248.632C27.5986 249.323 27.2174 250.066 26.5241 250.288C26.3907 250.331 26.2549 250.352 26.1214 250.352H26.1238ZM364.608 246.014C364.484 246.014 364.36 245.997 364.236 245.959C363.538 245.754 363.14 245.022 363.345 244.324C363.507 243.772 363.669 243.216 363.824 242.661C364.019 241.963 364.732 241.553 365.446 241.751C366.144 241.949 366.554 242.676 366.357 243.374C366.197 243.938 366.037 244.503 365.87 245.068C365.701 245.642 365.177 246.011 364.608 246.011V246.014ZM22.7882 238.599C22.1973 238.599 21.6589 238.196 21.5111 237.596L21.099 235.888C20.9322 235.18 21.3706 234.472 22.0782 234.303C22.7763 234.136 23.4935 234.572 23.6602 235.282L24.0677 236.967C24.2416 237.672 23.808 238.385 23.1027 238.558C22.9979 238.585 22.893 238.597 22.7882 238.597V238.599ZM367.641 234.177C367.545 234.177 367.45 234.167 367.357 234.146C366.647 233.989 366.199 233.288 366.354 232.578L366.716 230.884C366.866 230.172 367.572 229.719 368.277 229.867C368.989 230.017 369.444 230.715 369.294 231.425L368.925 233.145C368.789 233.76 368.244 234.179 367.641 234.179V234.177ZM20.277 226.641C19.6504 226.641 19.0928 226.188 18.9808 225.55L18.6878 223.815C18.5687 223.098 19.0571 222.421 19.7742 222.302C20.4985 222.188 21.1681 222.671 21.2848 223.389L21.5755 225.099C21.6994 225.814 21.2181 226.498 20.5033 226.622C20.4271 226.636 20.3532 226.641 20.277 226.641ZM369.845 222.159C369.78 222.159 369.714 222.154 369.649 222.145C368.93 222.038 368.434 221.368 368.541 220.649C368.627 220.079 368.708 219.507 368.787 218.936C368.884 218.214 369.563 217.711 370.269 217.809C370.988 217.906 371.493 218.571 371.396 219.29C371.317 219.872 371.234 220.453 371.148 221.035C371.05 221.687 370.488 222.157 369.847 222.157L369.845 222.159ZM18.5996 214.54C17.9325 214.54 17.3631 214.037 17.2916 213.36L17.1177 211.611C17.0486 210.887 17.5799 210.246 18.3066 210.177C19.038 210.106 19.6718 210.639 19.7409 211.364L19.9101 213.089C19.9863 213.813 19.4597 214.459 18.7354 214.535C18.6902 214.54 18.6449 214.542 18.5972 214.542L18.5996 214.54ZM371.215 210.018C371.181 210.018 371.146 210.017 371.112 210.013C370.388 209.958 369.845 209.324 369.899 208.6L370.026 206.87C370.073 206.143 370.7 205.6 371.427 205.645C372.151 205.695 372.699 206.322 372.651 207.049L372.525 208.802C372.473 209.493 371.894 210.018 371.215 210.018ZM17.7586 202.348C17.0533 202.348 16.4672 201.788 16.4434 201.078C16.422 200.494 16.4053 199.908 16.391 199.322C16.3743 198.595 16.9509 197.993 17.6752 197.976C18.4471 197.947 19.0047 198.533 19.0213 199.26C19.0356 199.837 19.0523 200.411 19.0738 200.985C19.1 201.712 18.5305 202.322 17.8038 202.348C17.7896 202.348 17.7729 202.348 17.7586 202.348ZM371.746 197.809H371.734C371.007 197.802 370.424 197.209 370.431 196.482L370.44 194.748V194.373C370.44 193.647 371.029 193.058 371.755 193.058C372.482 193.058 373.071 193.647 373.071 194.373V194.728L373.064 196.503C373.056 197.225 372.468 197.809 371.748 197.809H371.746ZM17.7467 190.132C17.7324 190.132 17.7181 190.132 17.7038 190.132C16.9771 190.109 16.4077 189.501 16.4315 188.774C16.4529 188.186 16.4744 187.6 16.5006 187.014C16.5339 186.287 17.1463 185.729 17.8729 185.758C18.5996 185.789 19.1619 186.406 19.1286 187.13C19.1024 187.707 19.0833 188.284 19.0642 188.86C19.0404 189.573 18.4567 190.135 17.7491 190.135L17.7467 190.132ZM371.422 185.22C370.731 185.22 370.15 184.681 370.109 183.981C370.076 183.404 370.04 182.83 369.997 182.253C369.945 181.529 370.493 180.9 371.217 180.848C371.939 180.79 372.57 181.341 372.623 182.067C372.663 182.654 372.701 183.24 372.737 183.826C372.78 184.552 372.227 185.174 371.501 185.217C371.474 185.217 371.448 185.217 371.422 185.217V185.22ZM18.5639 177.941C18.5186 177.941 18.4757 177.941 18.4305 177.934C17.7062 177.86 17.1796 177.216 17.2535 176.492C17.3107 175.908 17.3726 175.322 17.4393 174.741C17.5203 174.019 18.1827 173.502 18.8951 173.581C19.617 173.662 20.1364 174.314 20.0554 175.036C19.9911 175.608 19.9291 176.182 19.8719 176.757C19.8028 177.436 19.2334 177.941 18.5639 177.941ZM370.269 173.057C369.618 173.057 369.051 172.573 368.965 171.91L368.734 170.193C368.634 169.473 369.137 168.808 369.857 168.706C370.581 168.599 371.241 169.109 371.343 169.826L371.579 171.57C371.672 172.289 371.165 172.952 370.443 173.045C370.385 173.052 370.328 173.057 370.271 173.057H370.269ZM20.2198 165.835C20.1435 165.835 20.0697 165.828 19.9934 165.816C19.2763 165.692 18.7974 165.011 18.9213 164.293L19.2286 162.561C19.3573 161.846 20.0411 161.372 20.7583 161.503C21.473 161.634 21.9472 162.321 21.8161 163.035L21.5135 164.744C21.4015 165.385 20.8464 165.835 20.2174 165.835H20.2198ZM368.277 161.001C367.662 161.001 367.112 160.567 366.988 159.94C366.876 159.373 366.759 158.809 366.64 158.246C366.49 157.534 366.945 156.836 367.657 156.686C368.353 156.536 369.066 156.991 369.216 157.703C369.337 158.277 369.456 158.854 369.571 159.431C369.714 160.143 369.249 160.836 368.537 160.977C368.451 160.993 368.365 161.003 368.279 161.003L368.277 161.001ZM22.7072 153.872C22.6024 153.872 22.4975 153.86 22.3927 153.834C21.6875 153.66 21.2538 152.947 21.4278 152.242L21.8542 150.536C22.0329 149.831 22.7477 149.409 23.4553 149.586C24.1606 149.767 24.5847 150.482 24.4036 151.187L23.9843 152.869C23.8365 153.469 23.2981 153.872 22.7072 153.872ZM365.461 149.112C364.882 149.112 364.353 148.728 364.191 148.144L363.724 146.474C363.526 145.774 363.931 145.047 364.632 144.847C365.337 144.647 366.056 145.054 366.259 145.752L366.733 147.446C366.926 148.147 366.511 148.871 365.811 149.064C365.694 149.095 365.577 149.112 365.463 149.112H365.461ZM26.019 142.112C25.8879 142.112 25.7521 142.092 25.6187 142.05C24.9254 141.828 24.5442 141.087 24.7681 140.396C24.9468 139.834 25.1279 139.271 25.3137 138.712C25.5425 138.023 26.2811 137.647 26.9792 137.88C27.6677 138.111 28.0418 138.855 27.8131 139.545C27.6296 140.096 27.4509 140.646 27.2722 141.199C27.0935 141.759 26.5765 142.114 26.019 142.114V142.112ZM361.818 137.449C361.272 137.449 360.765 137.108 360.576 136.567C360.386 136.022 360.193 135.478 359.995 134.938C359.747 134.254 360.1 133.498 360.784 133.251C361.465 133.003 362.22 133.356 362.471 134.039C362.671 134.592 362.868 135.145 363.061 135.7C363.302 136.386 362.94 137.137 362.254 137.377C362.111 137.427 361.963 137.451 361.82 137.451L361.818 137.449ZM30.1528 130.585C29.9908 130.585 29.8264 130.554 29.6667 130.492C28.9925 130.222 28.6613 129.458 28.9305 128.783L29.5929 127.147C29.8692 126.472 30.6412 126.151 31.3107 126.427C31.9826 126.701 32.3042 127.471 32.0302 128.142L31.3798 129.755C31.1749 130.27 30.6793 130.585 30.1552 130.585H30.1528ZM357.386 126.084C356.876 126.084 356.393 125.786 356.178 125.288L355.487 123.706C355.192 123.041 355.492 122.265 356.157 121.969C356.819 121.676 357.601 121.974 357.894 122.639L358.594 124.245C358.882 124.912 358.575 125.686 357.908 125.974C357.739 126.048 357.562 126.082 357.386 126.082V126.084ZM35.0728 119.377C34.8822 119.377 34.6868 119.334 34.5034 119.246C33.8482 118.931 33.5718 118.143 33.8887 117.49L34.6606 115.908C34.9799 115.257 35.7661 114.986 36.4213 115.307C37.0718 115.629 37.341 116.418 37.0218 117.071L36.2617 118.636C36.033 119.105 35.5636 119.382 35.0728 119.382V119.377ZM352.175 115.055C351.697 115.055 351.237 114.795 351.003 114.34C350.739 113.828 350.474 113.318 350.205 112.808C349.867 112.165 350.11 111.369 350.753 111.028C351.399 110.69 352.19 110.935 352.533 111.579C352.804 112.096 353.078 112.613 353.345 113.135C353.679 113.78 353.424 114.574 352.778 114.907C352.585 115.007 352.378 115.053 352.178 115.053L352.175 115.055ZM40.76 108.541C40.5384 108.541 40.3145 108.484 40.1096 108.367C39.4782 108.007 39.259 107.202 39.6188 106.571L40.4979 105.046C40.8649 104.417 41.6726 104.205 42.2968 104.569C42.9258 104.934 43.1378 105.739 42.7733 106.368L41.9037 107.874C41.6606 108.298 41.2175 108.539 40.7576 108.539L40.76 108.541ZM346.214 104.407C345.769 104.407 345.335 104.183 345.087 103.773L344.182 102.296C343.801 101.679 343.989 100.867 344.608 100.485C345.23 100.102 346.04 100.297 346.419 100.914L347.334 102.408C347.713 103.03 347.513 103.84 346.893 104.217C346.679 104.345 346.445 104.407 346.212 104.407H346.214ZM47.1763 98.1291C46.9261 98.1291 46.6736 98.0576 46.4496 97.9099C45.8445 97.5072 45.6801 96.69 46.0803 96.0848C46.4067 95.5964 46.7332 95.108 47.0643 94.6219C47.4718 94.0215 48.289 93.8643 48.8918 94.2717C49.4922 94.6791 49.6518 95.4987 49.242 96.0991C48.918 96.578 48.594 97.0569 48.2747 97.5382C48.0198 97.9194 47.6028 98.1267 47.1763 98.1267V98.1291ZM339.531 94.193C339.116 94.193 338.711 93.9977 338.454 93.6331C338.123 93.1614 337.787 92.692 337.451 92.225C337.027 91.6342 337.16 90.8122 337.751 90.3881C338.34 89.964 339.164 90.0998 339.586 90.6883C339.929 91.1648 340.27 91.6413 340.606 92.1202C341.025 92.7135 340.882 93.5355 340.286 93.9548C340.058 94.1168 339.791 94.1954 339.531 94.1954V94.193ZM54.2979 88.1889C54.0191 88.1889 53.7379 88.1008 53.4973 87.9173C52.9207 87.4742 52.8135 86.6474 53.2567 86.0732C53.6141 85.6086 53.9738 85.144 54.3384 84.6818C54.7887 84.11 55.613 84.0099 56.1872 84.4602C56.7591 84.9081 56.8568 85.7373 56.4088 86.3091C56.0514 86.7642 55.6964 87.2192 55.3438 87.6767C55.0841 88.015 54.6934 88.1913 54.2979 88.1913V88.1889ZM332.157 84.4578C331.776 84.4578 331.397 84.291 331.135 83.9718C330.77 83.5238 330.406 83.0783 330.036 82.6351C329.572 82.0752 329.648 81.2461 330.208 80.7815C330.766 80.3169 331.597 80.3931 332.062 80.953C332.436 81.4034 332.807 81.856 333.177 82.3111C333.634 82.8758 333.551 83.7049 332.984 84.1624C332.741 84.3601 332.448 84.4578 332.155 84.4578H332.157ZM62.0841 78.7611C61.7744 78.7611 61.4623 78.6515 61.2121 78.4299C60.6689 77.9486 60.6165 77.1171 61.0977 76.5715C61.4861 76.1307 61.8769 75.6923 62.2724 75.2563C62.7608 74.7178 63.5923 74.6773 64.1308 75.1657C64.6692 75.6542 64.7097 76.4857 64.2213 77.0242C63.8329 77.453 63.4493 77.8819 63.0658 78.3131C62.8061 78.6062 62.4439 78.7563 62.0794 78.7563L62.0841 78.7611ZM324.128 75.2491C323.775 75.2491 323.422 75.1086 323.165 74.8298C322.772 74.4081 322.376 73.9888 321.979 73.5718C321.476 73.0452 321.497 72.2113 322.024 71.711C322.55 71.2083 323.382 71.2297 323.885 71.7563C324.29 72.1804 324.692 72.6069 325.09 73.0357C325.586 73.567 325.557 74.4009 325.023 74.8965C324.771 75.1324 324.447 75.2491 324.128 75.2491ZM70.4923 69.8931C70.1516 69.8931 69.8132 69.7621 69.5559 69.5C69.046 68.9829 69.0532 68.149 69.5702 67.6392C69.9895 67.227 70.4089 66.8172 70.8306 66.4098C71.3548 65.907 72.1887 65.9213 72.6914 66.4455C73.1941 66.9697 73.1798 67.8036 72.658 68.3063C72.2411 68.7066 71.8289 69.1092 71.4167 69.5143C71.1594 69.7668 70.8282 69.8931 70.4923 69.8931ZM315.488 66.6099C315.167 66.6099 314.845 66.4931 314.59 66.2573L313.318 65.0803C312.782 64.5895 312.744 63.7579 313.234 63.2219C313.723 62.6858 314.559 62.6477 315.093 63.1385L316.387 64.3321C316.918 64.8277 316.947 65.6616 316.451 66.1929C316.191 66.4717 315.841 66.6123 315.488 66.6123V66.6099ZM79.4865 61.6255C79.1172 61.6255 78.7479 61.4707 78.4882 61.1657C78.0141 60.6129 78.0784 59.7838 78.6312 59.3097L79.9702 58.1732C80.5253 57.7062 81.3568 57.7753 81.8238 58.3304C82.2932 58.8856 82.2217 59.7171 81.6666 60.1841L80.3442 61.3063C80.0965 61.5183 79.7915 61.6232 79.4865 61.6232V61.6255ZM306.27 58.5806C305.977 58.5806 305.684 58.4853 305.441 58.2852L304.088 57.1987C303.518 56.746 303.425 55.9169 303.878 55.3498C304.333 54.7828 305.16 54.6851 305.727 55.1401L307.099 56.2433C307.664 56.7007 307.75 57.5299 307.292 58.0946C307.033 58.4138 306.654 58.5806 306.27 58.5806ZM89.0264 53.9965C88.6237 53.9965 88.2282 53.813 87.9685 53.4652C87.5349 52.8815 87.654 52.0571 88.2377 51.6235L89.6506 50.5823C90.2391 50.1534 91.0611 50.2821 91.49 50.8682C91.9188 51.4543 91.7902 52.2787 91.204 52.7075L89.8102 53.7344C89.5744 53.9107 89.298 53.9941 89.0264 53.9941V53.9965ZM296.521 51.2017C296.261 51.2017 295.994 51.1231 295.765 50.9611L294.341 49.9699C293.743 49.5578 293.592 48.7381 294.005 48.1401C294.417 47.5421 295.236 47.3896 295.835 47.8042C296.318 48.1377 296.799 48.4737 297.278 48.812C297.874 49.2313 298.015 50.051 297.598 50.6466C297.34 51.0111 296.935 51.2041 296.521 51.2041V51.2017ZM99.0618 47.0417C98.6282 47.0417 98.2041 46.8273 97.9539 46.4366C97.5608 45.8243 97.7371 45.0118 98.3494 44.6187C98.8402 44.3018 99.3358 43.9873 99.8314 43.6775C100.451 43.2892 101.261 43.4774 101.647 44.0921C102.035 44.7068 101.849 45.5193 101.235 45.9076L99.7742 46.8368C99.555 46.9798 99.3072 47.0465 99.0642 47.0465L99.0618 47.0417ZM286.283 44.5091C286.052 44.5091 285.816 44.4471 285.601 44.3185L284.112 43.425C283.486 43.0557 283.278 42.248 283.65 41.6214C284.022 40.9971 284.832 40.7875 285.454 41.1592L286.966 42.0645C287.588 42.441 287.786 43.2511 287.41 43.8729C287.162 44.2827 286.728 44.5067 286.283 44.5067V44.5091ZM109.55 40.797C109.083 40.797 108.633 40.5492 108.394 40.1132C108.044 39.4771 108.278 38.6765 108.916 38.3263L110.455 37.49C111.099 37.1445 111.897 37.3875 112.237 38.0261C112.583 38.667 112.342 39.4651 111.704 39.8082L110.184 40.635C109.981 40.7446 109.764 40.797 109.552 40.797H109.55ZM275.604 38.5383C275.401 38.5383 275.194 38.4907 275.004 38.3906C274.489 38.1261 273.974 37.864 273.455 37.6043C272.804 37.2779 272.542 36.4869 272.871 35.8365C273.198 35.186 273.986 34.9263 274.639 35.2504C275.163 35.5148 275.69 35.7817 276.212 36.0509C276.857 36.3845 277.112 37.1779 276.776 37.8235C276.543 38.2762 276.083 38.5359 275.606 38.5359L275.604 38.5383ZM120.438 35.2956C119.94 35.2956 119.466 35.0121 119.245 34.5308C118.94 33.8708 119.228 33.0893 119.888 32.7844L121.48 32.0577C122.142 31.7599 122.923 32.0529 123.221 32.7153C123.521 33.3776 123.226 34.1567 122.564 34.457L120.991 35.1741C120.812 35.2575 120.624 35.2956 120.438 35.2956ZM264.537 33.3205C264.363 33.3205 264.187 33.2871 264.017 33.2132L262.414 32.5342C261.745 32.2531 261.428 31.4835 261.706 30.8116C261.985 30.1397 262.757 29.8252 263.429 30.104L265.056 30.7925C265.726 31.0785 266.033 31.8528 265.747 32.5199C265.533 33.0179 265.047 33.3181 264.537 33.3181V33.3205ZM131.675 30.5614C131.146 30.5614 130.645 30.2398 130.445 29.7132C130.185 29.0342 130.526 28.2742 131.205 28.0145C131.753 27.8048 132.301 27.5999 132.854 27.395C133.526 27.1448 134.293 27.4903 134.543 28.1717C134.796 28.8531 134.448 29.6108 133.764 29.8633C133.223 30.0635 132.68 30.266 132.144 30.4733C131.989 30.5328 131.829 30.5614 131.675 30.5614ZM253.129 28.8817C252.986 28.8817 252.838 28.8579 252.695 28.8079L251.049 28.2408C250.361 28.0073 249.991 27.2616 250.222 26.573C250.458 25.8844 251.202 25.5175 251.893 25.7486C252.45 25.9368 253.008 26.1298 253.563 26.3228C254.249 26.5635 254.611 27.314 254.37 28.0002C254.18 28.5434 253.672 28.8817 253.129 28.8817ZM143.237 26.6111C142.673 26.6111 142.151 26.2442 141.977 25.6771C141.767 24.9814 142.158 24.2476 142.854 24.0355C143.416 23.8664 143.978 23.6972 144.543 23.5328C145.246 23.3279 145.97 23.7306 146.175 24.4263C146.38 25.1244 145.98 25.8558 145.279 26.0584L143.618 26.5539C143.492 26.5921 143.361 26.6111 143.237 26.6111ZM241.45 25.253C241.335 25.253 241.219 25.2387 241.102 25.2054C240.547 25.0529 239.989 24.9052 239.429 24.7575C238.726 24.574 238.307 23.8545 238.49 23.1492C238.676 22.444 239.398 22.0294 240.099 22.2105C240.666 22.3606 241.233 22.5107 241.8 22.6656C242.5 22.8585 242.913 23.5805 242.722 24.2833C242.56 24.8694 242.031 25.253 241.452 25.253H241.45ZM155.045 23.4733C154.445 23.4733 153.904 23.0611 153.763 22.4511C153.601 21.7435 154.045 21.0359 154.755 20.8739C155.326 20.7428 155.898 20.6142 156.472 20.4903C157.187 20.3354 157.883 20.7857 158.038 21.4957C158.193 22.2057 157.742 22.9086 157.032 23.0611C156.468 23.185 155.905 23.3112 155.341 23.4399C155.243 23.4613 155.143 23.4733 155.045 23.4733ZM229.561 22.4464C229.475 22.4464 229.387 22.4368 229.301 22.4201L227.6 22.089C226.885 21.9532 226.416 21.2646 226.551 20.5498C226.69 19.835 227.39 19.3681 228.091 19.5015L229.816 19.8374C230.528 19.9804 230.99 20.6737 230.85 21.3861C230.723 22.0127 230.175 22.444 229.561 22.444V22.4464ZM167.044 21.1621C166.405 21.1621 165.848 20.6999 165.745 20.0495C165.634 19.3299 166.124 18.6581 166.841 18.5461L168.581 18.2816C169.312 18.1696 169.97 18.6747 170.075 19.3919C170.179 20.1114 169.682 20.7786 168.964 20.8858L167.249 21.1455C167.18 21.155 167.111 21.1621 167.044 21.1621ZM217.505 20.4688C217.448 20.4688 217.393 20.4664 217.336 20.4593L215.615 20.2472C214.893 20.1615 214.376 19.5063 214.462 18.7843C214.548 18.0624 215.206 17.5478 215.925 17.6312L217.674 17.848C218.393 17.9409 218.903 18.6009 218.813 19.3204C218.727 19.9852 218.162 20.4688 217.509 20.4688H217.505ZM179.174 19.6849C178.499 19.6849 177.923 19.1679 177.863 18.4817C177.799 17.7574 178.337 17.1189 179.062 17.057L180.813 16.914C181.552 16.8616 182.171 17.4 182.226 18.1244C182.281 18.8487 181.74 19.4824 181.013 19.5372L179.286 19.6778C179.248 19.6802 179.209 19.6826 179.171 19.6826L179.174 19.6849ZM205.339 19.3276C205.313 19.3276 205.287 19.3276 205.258 19.3276C204.682 19.2918 204.107 19.2608 203.528 19.2323C202.804 19.1965 202.242 18.5794 202.28 17.8527C202.316 17.1261 202.923 16.5614 203.66 16.6019C204.246 16.6305 204.832 16.6638 205.418 16.6972C206.142 16.7401 206.697 17.3643 206.654 18.0886C206.612 18.7867 206.033 19.3252 205.342 19.3252L205.339 19.3276ZM191.377 19.044C190.66 19.044 190.074 18.4698 190.062 17.7527C190.048 17.026 190.627 16.4256 191.354 16.4113L193.109 16.3875H193.121C193.843 16.3875 194.432 16.9688 194.437 17.6931C194.444 18.4198 193.86 19.0154 193.133 19.0202L191.401 19.044C191.401 19.044 191.387 19.044 191.377 19.044Z" fill="#002F47"/>
<g style="mix-blend-mode:multiply" opacity="0.3">
<path d="M173.168 250.683H145.211C145.137 246.664 145.101 244.214 145.101 243.338C145.101 234.277 146.598 226.821 149.595 220.972C152.592 215.125 158.584 208.547 167.574 201.237C176.563 193.93 181.936 189.141 183.692 186.875C186.394 183.294 187.747 179.349 187.747 175.034C187.747 169.041 185.353 163.907 180.566 159.63C175.777 155.356 169.33 153.216 161.217 153.216C153.104 153.216 146.855 155.446 141.592 159.904C136.329 164.362 132.712 171.16 130.739 180.297L102.453 176.787C103.256 163.705 108.829 152.597 119.172 143.46C129.514 134.323 143.09 129.755 159.902 129.755C177.59 129.755 191.657 134.38 202.112 143.624C212.562 152.871 217.789 163.633 217.789 175.91C217.789 182.708 215.871 189.141 212.033 195.207C208.194 201.273 199.991 209.533 187.421 219.983C180.916 225.394 176.878 229.74 175.305 233.03C173.733 236.318 173.02 242.203 173.168 250.681V250.683Z" fill="white"/>
<path d="M172.873 263.644H145.602V290.918H172.873V263.644Z" fill="white"/>
<path d="M174.176 249.676H146.219C146.145 245.656 146.109 243.207 146.109 242.33C146.109 233.269 147.605 225.814 150.603 219.965C153.6 214.118 159.592 207.54 168.582 200.23C177.571 192.922 182.944 188.133 184.7 185.868C187.402 182.287 188.755 178.341 188.755 174.026C188.755 168.034 186.36 162.9 181.574 158.623C176.785 154.348 170.338 152.209 162.225 152.209C154.112 152.209 147.863 154.439 142.6 158.897C137.336 163.355 133.72 170.152 131.747 179.289L103.461 175.78C104.264 162.697 109.837 151.589 120.18 142.452C130.522 133.315 144.098 128.748 160.91 128.748C178.598 128.748 192.665 133.372 203.12 142.617C213.57 151.863 218.797 162.626 218.797 174.903C218.797 181.7 216.879 188.133 213.041 194.199C209.202 200.266 200.999 208.526 188.429 218.976C181.924 224.387 177.886 228.733 176.313 232.023C174.741 235.311 174.028 241.196 174.176 249.673V249.676Z" fill="#FFF9FA"/>
<path d="M173.88 262.639H146.609V289.913H173.88V262.639Z" fill="#FFF9FA"/>
<path d="M175.192 248.67H147.234C147.161 244.65 147.125 242.201 147.125 241.324C147.125 232.263 148.621 224.808 151.618 218.959C154.616 213.112 160.608 206.534 169.597 199.224C178.587 191.917 183.959 187.128 185.715 184.862C188.417 181.281 189.771 177.335 189.771 173.021C189.771 167.028 187.376 161.894 182.59 157.617C177.801 153.343 171.353 151.203 163.241 151.203C155.128 151.203 148.878 153.433 143.615 157.891C138.352 162.349 134.735 169.146 132.763 178.284L104.477 174.774C105.279 161.691 110.852 150.584 121.195 141.447C131.538 132.309 145.114 127.742 161.925 127.742C179.614 127.742 193.68 132.367 204.135 141.611C214.585 150.858 219.813 161.62 219.813 173.897C219.813 180.695 217.895 187.128 214.056 193.194C210.218 199.26 202.015 207.52 189.444 217.97C182.94 223.381 178.901 227.727 177.329 231.017C175.756 234.305 175.044 240.19 175.192 248.668V248.67Z" fill="#FFF2F5"/>
<path d="M174.896 261.631H147.625V288.905H174.896V261.631Z" fill="#FFF2F5"/>
<path d="M176.192 247.662H148.234C148.161 243.643 148.125 241.193 148.125 240.317C148.125 231.256 149.621 223.801 152.618 217.951C155.616 212.104 161.608 205.526 170.597 198.216C179.587 190.909 184.959 186.12 186.715 183.854C189.417 180.273 190.771 176.328 190.771 172.013C190.771 166.021 188.376 160.886 183.59 156.609C178.801 152.335 172.353 150.195 164.241 150.195C156.128 150.195 149.878 152.426 144.615 156.883C139.352 161.341 135.735 168.139 133.763 177.276L105.477 173.766C106.279 160.684 111.852 149.576 122.195 140.439C132.538 131.302 146.114 126.734 162.925 126.734C180.614 126.734 194.68 131.359 205.135 140.603C215.585 149.85 220.813 160.612 220.813 172.89C220.813 179.687 218.895 186.12 215.056 192.186C211.218 198.252 203.015 206.513 190.444 216.963C183.94 222.373 179.901 226.719 178.329 230.01C176.756 233.298 176.044 239.182 176.192 247.66V247.662Z" fill="#FFECF0"/>
<path d="M175.896 260.626H148.625V287.899H175.896V260.626Z" fill="#FFECF0"/>
<path d="M177.199 246.657H149.242C149.168 242.637 149.133 240.188 149.133 239.311C149.133 230.25 150.629 222.795 153.626 216.946C156.623 211.099 162.616 204.521 171.605 197.211C180.595 189.903 185.967 185.114 187.723 182.849C190.425 179.268 191.778 175.322 191.778 171.007C191.778 165.015 189.384 159.881 184.597 155.604C179.808 151.329 173.361 149.19 165.248 149.19C157.136 149.19 150.886 151.42 145.623 155.878C140.36 160.336 136.743 167.133 134.77 176.27L106.484 172.761C107.287 159.678 112.86 148.57 123.203 139.433C133.546 130.296 147.122 125.729 163.933 125.729C181.621 125.729 195.688 130.353 206.143 139.598C216.593 148.844 221.82 159.607 221.82 171.884C221.82 178.682 219.902 185.115 216.064 191.181C212.226 197.247 204.022 205.507 191.452 215.957C184.948 221.368 180.909 225.714 179.337 229.004C177.764 232.292 177.052 238.177 177.199 246.654V246.657Z" fill="#FFE6EB"/>
<path d="M176.904 259.618H149.633V286.891H176.904V259.618Z" fill="#FFE6EB"/>
<path d="M178.207 245.649H150.25C150.176 241.629 150.14 239.18 150.14 238.303C150.14 229.242 151.637 221.787 154.634 215.938C157.631 210.091 163.623 203.513 172.613 196.203C181.602 188.896 186.975 184.107 188.731 181.841C191.433 178.26 192.786 174.314 192.786 169.999C192.786 164.007 190.392 158.873 185.605 154.596C180.816 150.322 174.369 148.182 166.256 148.182C158.143 148.182 151.894 150.412 146.631 154.87C141.368 159.328 137.751 166.125 135.778 175.263L107.492 171.753C108.295 158.67 113.868 147.563 124.211 138.425C134.554 129.288 148.13 124.721 164.941 124.721C182.629 124.721 196.696 129.345 207.151 138.59C217.601 147.837 222.828 158.599 222.828 170.876C222.828 177.674 220.91 184.107 217.072 190.173C213.234 196.239 205.03 204.499 192.46 214.949C185.955 220.36 181.917 224.706 180.344 227.996C178.772 231.284 178.059 237.169 178.207 245.646V245.649Z" fill="#FFE0E6"/>
<path d="M177.912 258.612H150.641V285.886H177.912V258.612Z" fill="#FFE0E6"/>
<path d="M179.223 244.643H151.266C151.192 240.624 151.156 238.175 151.156 237.298C151.156 228.237 152.652 220.782 155.65 214.932C158.647 209.086 164.639 202.507 173.629 195.198C182.618 187.89 187.991 183.101 189.747 180.835C192.449 177.254 193.802 173.309 193.802 168.994C193.802 163.002 191.407 157.867 186.621 153.591C181.832 149.316 175.384 147.177 167.272 147.177C159.159 147.177 152.91 149.407 147.646 153.865C142.383 158.322 138.767 165.12 136.794 174.257L108.508 170.748C109.311 157.665 114.884 146.557 125.226 137.42C135.569 128.283 149.145 123.715 165.957 123.715C183.645 123.715 197.712 128.34 208.166 137.584C218.616 146.831 223.844 157.593 223.844 169.871C223.844 176.668 221.926 183.101 218.088 189.167C214.249 195.233 206.046 203.494 193.475 213.944C186.971 219.355 182.933 223.7 181.36 226.991C179.788 230.279 179.075 236.164 179.223 244.641V244.643Z" fill="#FFD9E1"/>
<path d="M178.927 257.607H151.656V284.88H178.927V257.607Z" fill="#FFD9E1"/>
<path d="M180.215 243.638H152.258C152.184 239.618 152.148 237.169 152.148 236.292C152.148 227.231 153.644 219.776 156.642 213.927C159.639 208.08 165.631 201.502 174.621 194.192C183.61 186.885 188.983 182.096 190.739 179.83C193.441 176.249 194.794 172.303 194.794 167.989C194.794 161.996 192.4 156.862 187.613 152.585C182.824 148.311 176.377 146.171 168.264 146.171C160.151 146.171 153.902 148.401 148.639 152.859C143.376 157.317 139.759 164.114 137.786 173.252L109.5 169.742C110.303 156.659 115.876 145.552 126.219 136.415C136.561 127.277 150.137 122.71 166.949 122.71C184.637 122.71 198.704 127.335 209.159 136.579C219.609 145.826 224.836 156.588 224.836 168.865C224.836 175.663 222.918 182.096 219.08 188.162C215.241 194.228 207.038 202.488 194.468 212.938C187.963 218.349 183.925 222.695 182.352 225.985C180.78 229.273 180.067 235.158 180.215 243.636V243.638Z" fill="#FFD3DC"/>
<path d="M179.919 256.599H152.648V283.873H179.919V256.599Z" fill="#FFD3DC"/>
<path d="M181.223 242.63H153.266C153.192 238.611 153.156 236.161 153.156 235.285C153.156 226.224 154.652 218.769 157.65 212.919C160.647 207.072 166.639 200.494 175.629 193.184C184.618 185.877 189.991 181.088 191.747 178.822C194.449 175.241 195.802 171.296 195.802 166.981C195.802 160.989 193.407 155.854 188.621 151.577C183.832 147.303 177.384 145.163 169.272 145.163C161.159 145.163 154.91 147.394 149.646 151.851C144.383 156.309 140.767 163.107 138.794 172.244L110.508 168.734C111.311 155.652 116.884 144.544 127.226 135.407C137.569 126.27 151.145 121.702 167.957 121.702C185.645 121.702 199.712 126.327 210.166 135.571C220.616 144.818 225.844 155.58 225.844 167.858C225.844 174.655 223.926 181.088 220.088 187.154C216.249 193.22 208.046 201.481 195.475 211.931C188.971 217.341 184.933 221.687 183.36 224.978C181.787 228.266 181.075 234.15 181.223 242.628V242.63Z" fill="#FFCDD7"/>
<path d="M180.927 255.594H153.656V282.867H180.927V255.594Z" fill="#FFCDD7"/>
<path d="M182.238 241.625H154.281C154.207 237.605 154.172 235.156 154.172 234.279C154.172 225.218 155.668 217.763 158.665 211.914C161.662 206.067 167.655 199.489 176.644 192.179C185.634 184.872 191.006 180.083 192.762 177.817C195.464 174.236 196.817 170.29 196.817 165.975C196.817 159.983 194.423 154.849 189.636 150.572C184.847 146.298 178.4 144.158 170.287 144.158C162.175 144.158 155.925 146.388 150.662 150.846C145.399 155.304 141.782 162.101 139.809 171.238L111.523 167.729C112.326 154.646 117.899 143.539 128.242 134.401C138.585 125.264 152.161 120.697 168.972 120.697C186.661 120.697 200.727 125.321 211.182 134.566C221.632 143.813 226.859 154.575 226.859 166.852C226.859 173.65 224.941 180.083 221.103 186.149C217.265 192.215 209.062 200.475 196.491 210.925C189.987 216.336 185.948 220.682 184.376 223.972C182.803 227.26 182.091 233.145 182.238 241.622V241.625Z" fill="#FFC6D2"/>
<path d="M181.943 254.586H154.672V281.859H181.943V254.586Z" fill="#FFC6D2"/>
<path d="M183.238 240.617H155.281C155.207 236.597 155.172 234.148 155.172 233.271C155.172 224.21 156.668 216.755 159.665 210.906C162.662 205.059 168.655 198.481 177.644 191.171C186.634 183.864 192.006 179.075 193.762 176.809C196.464 173.228 197.817 169.282 197.817 164.967C197.817 158.975 195.423 153.841 190.636 149.564C185.847 145.29 179.4 143.15 171.287 143.15C163.175 143.15 156.925 145.38 151.662 149.838C146.399 154.296 142.782 161.093 140.809 170.231L112.523 166.721C113.326 153.638 118.899 142.531 129.242 133.393C139.585 124.256 153.161 119.689 169.972 119.689C187.661 119.689 201.727 124.313 212.182 133.558C222.632 142.805 227.859 153.567 227.859 165.844C227.859 172.642 225.941 179.075 222.103 185.141C218.265 191.207 210.062 199.467 197.491 209.917C190.987 215.328 186.948 219.674 185.376 222.964C183.803 226.252 183.091 232.137 183.238 240.614V240.617Z" fill="#FFC0CD"/>
<path d="M182.943 253.58H155.672V280.854H182.943V253.58Z" fill="#FFC0CD"/>
<path d="M184.246 239.611H156.289C156.215 235.592 156.179 233.143 156.179 232.266C156.179 223.205 157.676 215.75 160.673 209.9C163.67 204.054 169.662 197.475 178.652 190.166C187.641 182.858 193.014 178.069 194.77 175.803C197.472 172.222 198.825 168.277 198.825 163.962C198.825 157.97 196.431 152.835 191.644 148.559C186.855 144.284 180.408 142.145 172.295 142.145C164.183 142.145 157.933 144.375 152.67 148.833C147.407 153.29 143.79 160.088 141.817 169.225L113.531 165.716C114.334 152.633 119.907 141.525 130.25 132.388C140.593 123.251 154.169 118.683 170.98 118.683C188.668 118.683 202.735 123.308 213.19 132.552C223.64 141.799 228.867 152.561 228.867 164.839C228.867 171.636 226.949 178.069 223.111 184.135C219.273 190.201 211.069 198.462 198.499 208.912C191.994 214.323 187.956 218.668 186.383 221.959C184.811 225.247 184.099 231.132 184.246 239.609V239.611Z" fill="#FFBAC8"/>
<path d="M183.951 252.575H156.68V279.848H183.951V252.575Z" fill="#FFBAC8"/>
<path d="M185.246 238.606H157.289C157.215 234.587 157.179 232.137 157.179 231.26C157.179 222.199 158.676 214.744 161.673 208.895C164.67 203.048 170.662 196.47 179.652 189.16C188.641 181.853 194.014 177.064 195.77 174.798C198.472 171.217 199.825 167.271 199.825 162.957C199.825 156.964 197.431 151.83 192.644 147.553C187.855 143.279 181.408 141.139 173.295 141.139C165.183 141.139 158.933 143.369 153.67 147.827C148.407 152.285 144.79 159.083 142.817 168.22L114.531 164.71C115.334 151.627 120.907 140.52 131.25 131.383C141.593 122.245 155.169 117.678 171.978 117.678C189.666 117.678 203.733 122.303 214.187 131.547C224.637 140.794 229.865 151.556 229.865 163.833C229.865 170.631 227.947 177.064 224.109 183.13C220.27 189.196 212.067 197.456 199.496 207.906C192.992 213.317 188.954 217.663 187.381 220.953C185.809 224.241 185.096 230.126 185.244 238.604L185.246 238.606Z" fill="#FFB4C3"/>
<path d="M184.951 251.567H157.68V278.841H184.951V251.567Z" fill="#FFB4C3"/>
<path d="M186.262 237.598H158.305C158.231 233.579 158.195 231.129 158.195 230.252C158.195 221.192 159.691 213.736 162.689 207.887C165.686 202.04 171.678 195.462 180.668 188.152C189.657 180.845 195.03 176.056 196.786 173.79C199.488 170.209 200.841 166.263 200.841 161.949C200.841 155.956 198.446 150.822 193.66 146.545C188.871 142.271 182.424 140.131 174.311 140.131C166.198 140.131 159.949 142.361 154.686 146.819C149.422 151.277 145.806 158.075 143.833 167.212L115.547 163.702C116.35 150.619 121.923 139.512 132.265 130.375C142.608 121.237 156.184 116.67 172.993 116.67C190.682 116.67 204.748 121.295 215.203 130.539C225.653 139.786 230.881 150.548 230.881 162.825C230.881 169.623 228.963 176.056 225.124 182.122C221.286 188.188 213.083 196.448 200.512 206.898C194.008 212.309 189.969 216.655 188.397 219.945C186.824 223.233 186.112 229.118 186.26 237.596L186.262 237.598Z" fill="#FFADBE"/>
<path d="M185.966 250.562H158.695V277.835H185.966V250.562Z" fill="#FFADBE"/>
<path d="M187.262 236.593H159.305C159.231 232.573 159.195 230.124 159.195 229.247C159.195 220.186 160.691 212.731 163.689 206.882C166.686 201.035 172.678 194.457 181.668 187.147C190.657 179.84 196.03 175.051 197.786 172.785C200.488 169.204 201.841 165.258 201.841 160.943C201.841 154.951 199.446 149.817 194.66 145.54C189.871 141.266 183.424 139.126 175.311 139.126C167.198 139.126 160.949 141.356 155.686 145.814C150.422 150.272 146.806 157.069 144.833 166.207L116.547 162.697C117.35 149.614 122.923 138.507 133.265 129.369C143.608 120.232 157.184 115.665 173.993 115.665C191.682 115.665 205.748 120.289 216.203 129.534C226.653 138.781 231.881 149.543 231.881 161.82C231.881 168.618 229.963 175.051 226.124 181.117C222.286 187.183 214.083 195.443 201.512 205.893C195.008 211.304 190.969 215.65 189.397 218.94C187.824 222.228 187.112 228.113 187.26 236.59L187.262 236.593Z" fill="#FFA7B9"/>
<path d="M186.966 249.554H159.695V276.827H186.966V249.554Z" fill="#FFA7B9"/>
<path d="M188.27 235.585H160.312C160.239 231.566 160.203 229.116 160.203 228.239C160.203 219.178 161.699 211.723 164.696 205.874C167.694 200.027 173.686 193.449 182.675 186.139C191.665 178.832 197.038 174.043 198.794 171.777C201.495 168.196 202.849 164.25 202.849 159.936C202.849 153.943 200.454 148.809 195.668 144.532C190.879 140.258 184.431 138.118 176.319 138.118C168.206 138.118 161.956 140.348 156.693 144.806C151.43 149.264 147.813 156.061 145.841 165.199L117.555 161.689C118.358 148.606 123.93 137.499 134.273 128.362C144.616 119.224 158.192 114.657 175.001 114.657C192.689 114.657 206.756 119.282 217.211 128.526C227.661 137.773 232.888 148.535 232.888 160.812C232.888 167.61 230.97 174.043 227.132 180.109C223.294 186.175 215.09 194.435 202.52 204.885C196.015 210.296 191.977 214.642 190.405 217.932C188.832 221.22 188.12 227.105 188.267 235.583L188.27 235.585Z" fill="#FFA1B4"/>
<path d="M187.974 248.549H160.703V275.822H187.974V248.549Z" fill="#FFA1B4"/>
<path d="M189.27 234.579H161.312C161.239 230.56 161.203 228.111 161.203 227.234C161.203 218.173 162.699 210.718 165.696 204.869C168.694 199.022 174.686 192.443 183.675 185.134C192.665 177.826 198.038 173.037 199.794 170.771C202.495 167.19 203.849 163.245 203.849 158.93C203.849 152.938 201.454 147.803 196.668 143.527C191.879 139.252 185.431 137.113 177.319 137.113C169.206 137.113 162.956 139.343 157.693 143.801C152.43 148.258 148.813 155.056 146.841 164.193L118.555 160.684C119.358 147.601 124.93 136.493 135.273 127.356C145.616 118.219 159.192 113.651 176.001 113.651C193.689 113.651 207.756 118.276 218.211 127.52C228.661 136.767 233.888 147.529 233.888 159.807C233.888 166.604 231.97 173.037 228.132 179.103C224.294 185.169 216.09 193.43 203.52 203.88C197.015 209.291 192.977 213.636 191.405 216.927C189.832 220.215 189.12 226.1 189.267 234.577L189.27 234.579Z" fill="#FF9AB0"/>
<path d="M188.974 247.543H161.703V274.816H188.974V247.543Z" fill="#FF9AB0"/>
<path d="M190.285 233.574H162.328C162.254 229.554 162.219 227.105 162.219 226.228C162.219 217.167 163.715 209.712 166.712 203.863C169.709 198.016 175.702 191.438 184.691 184.128C193.681 176.821 199.053 172.032 200.809 169.766C203.511 166.185 204.864 162.239 204.864 157.924C204.864 151.932 202.47 146.798 197.683 142.521C192.894 138.247 186.447 136.107 178.334 136.107C170.222 136.107 163.972 138.337 158.709 142.795C153.446 147.253 149.829 154.05 147.856 163.188L119.57 159.678C120.373 146.595 125.946 135.488 136.289 126.35C146.632 117.213 160.208 112.646 177.017 112.646C194.705 112.646 208.772 117.27 219.227 126.515C229.677 135.762 234.904 146.524 234.904 158.801C234.904 165.599 232.986 172.032 229.148 178.098C225.309 184.164 217.106 192.424 204.536 202.874C198.031 208.285 193.993 212.631 192.42 215.921C190.848 219.209 190.135 225.094 190.283 233.571L190.285 233.574Z" fill="#FF94AB"/>
<path d="M189.99 246.535H162.719V273.808H189.99V246.535Z" fill="#FF94AB"/>
<path d="M191.293 232.566H163.336C163.262 228.547 163.226 226.097 163.226 225.221C163.226 216.16 164.723 208.704 167.72 202.855C170.717 197.008 176.709 190.43 185.699 183.12C194.688 175.813 200.061 171.024 201.817 168.758C204.519 165.177 205.872 161.232 205.872 156.917C205.872 150.924 203.478 145.79 198.691 141.513C193.902 137.239 187.455 135.099 179.342 135.099C171.229 135.099 164.98 137.329 159.717 141.787C154.454 146.245 150.837 153.043 148.864 162.18L120.578 158.67C121.381 145.587 126.954 134.48 137.297 125.343C147.639 116.205 161.215 111.638 178.025 111.638C195.713 111.638 209.78 116.263 220.234 125.507C230.684 134.754 235.912 145.516 235.912 157.793C235.912 164.591 233.994 171.024 230.155 177.09C226.317 183.156 218.114 191.416 205.543 201.866C199.039 207.277 195 211.623 193.428 214.913C191.855 218.201 191.143 224.086 191.291 232.564L191.293 232.566Z" fill="#FF8EA6"/>
<path d="M190.998 245.53H163.727V272.803H190.998V245.53Z" fill="#FF8EA6"/>
<path d="M192.293 231.561H164.336C164.262 227.541 164.226 225.092 164.226 224.215C164.226 215.154 165.723 207.699 168.72 201.85C171.717 196.003 177.709 189.425 186.699 182.115C195.688 174.807 201.061 170.018 202.817 167.753C205.519 164.172 206.872 160.226 206.872 155.911C206.872 149.919 204.478 144.785 199.691 140.508C194.902 136.233 188.455 134.094 180.342 134.094C172.229 134.094 165.98 136.324 160.717 140.782C155.454 145.24 151.837 152.037 149.864 161.174L121.578 157.665C122.381 144.582 127.954 133.474 138.297 124.337C148.639 115.2 162.215 110.633 179.025 110.633C196.713 110.633 210.78 115.257 221.234 124.502C231.684 133.748 236.912 144.511 236.912 156.788C236.912 163.585 234.994 170.018 231.155 176.084C227.317 182.151 219.114 190.411 206.543 200.861C200.039 206.272 196 210.618 194.428 213.908C192.855 217.196 192.143 223.081 192.291 231.558L192.293 231.561Z" fill="#FF87A1"/>
<path d="M191.998 244.522H164.727V271.795H191.998V244.522Z" fill="#FF87A1"/>
<path d="M193.309 230.553H165.352C165.278 226.533 165.242 224.084 165.242 223.207C165.242 214.146 166.738 206.691 169.736 200.842C172.73 194.995 178.725 188.417 187.714 181.107C196.704 173.8 202.077 169.011 203.833 166.745C206.534 163.164 207.888 159.218 207.888 154.903C207.888 148.911 205.493 143.777 200.707 139.5C195.918 135.226 189.47 133.086 181.358 133.086C173.245 133.086 166.996 135.316 161.732 139.774C156.469 144.232 152.853 151.029 150.88 160.166L122.594 156.657C123.397 143.574 128.97 132.467 139.312 123.329C149.655 114.192 163.231 109.625 180.04 109.625C197.728 109.625 211.795 114.249 222.25 123.494C232.7 132.741 237.927 143.503 237.927 155.78C237.927 162.578 236.009 169.011 232.171 175.077C228.333 181.143 220.129 189.403 207.559 199.853C201.055 205.264 197.016 209.61 195.444 212.9C193.871 216.188 193.159 222.073 193.306 230.55L193.309 230.553Z" fill="#FF819C"/>
<path d="M193.013 243.516H165.742V270.79H193.013V243.516Z" fill="#FF819C"/>
<path d="M194.309 229.547H166.352C166.278 225.528 166.242 223.079 166.242 222.202C166.242 213.141 167.738 205.686 170.736 199.837C173.73 193.99 179.725 187.411 188.714 180.102C197.704 172.794 203.077 168.005 204.833 165.739C207.534 162.158 208.888 158.213 208.888 153.898C208.888 147.906 206.493 142.771 201.707 138.495C196.918 134.22 190.47 132.081 182.358 132.081C174.245 132.081 167.996 134.311 162.732 138.769C157.469 143.226 153.853 150.024 151.88 159.161L123.594 155.652C124.397 142.569 129.97 131.461 140.312 122.324C150.655 113.187 164.231 108.619 181.04 108.619C198.728 108.619 212.795 113.244 223.25 122.488C233.7 131.735 238.927 142.497 238.927 154.775C238.927 161.572 237.009 168.005 233.171 174.071C229.333 180.137 221.129 188.398 208.559 198.848C202.055 204.259 198.016 208.604 196.444 211.895C194.871 215.183 194.159 221.068 194.306 229.545L194.309 229.547Z" fill="#FF7B97"/>
<path d="M194.013 242.511H166.742V269.784H194.013V242.511Z" fill="#FF7B97"/>
<path d="M195.317 228.542H167.359C167.285 224.523 167.25 222.073 167.25 221.196C167.25 212.135 168.746 204.68 171.743 198.831C174.738 192.984 180.733 186.406 189.722 179.096C198.712 171.789 204.084 167 205.84 164.734C208.542 161.153 209.896 157.207 209.896 152.893C209.896 146.9 207.501 141.766 202.714 137.489C197.926 133.215 191.478 131.075 183.366 131.075C175.253 131.075 169.003 133.305 163.74 137.763C158.477 142.221 154.86 149.019 152.888 158.156L124.602 154.646C125.404 141.563 130.977 130.456 141.32 121.319C151.663 112.181 165.239 107.614 182.048 107.614C199.736 107.614 213.803 112.239 224.258 121.483C234.708 130.73 239.935 141.492 239.935 153.769C239.935 160.567 238.017 167 234.179 173.066C230.341 179.132 222.137 187.392 209.567 197.842C203.062 203.253 199.024 207.599 197.451 210.889C195.879 214.177 195.166 220.062 195.314 228.54L195.317 228.542Z" fill="#FF7592"/>
<path d="M195.021 241.503H167.75V268.777H195.021V241.503Z" fill="#FF7592"/>
<path d="M196.324 227.534H168.367C168.293 223.515 168.258 221.065 168.258 220.189C168.258 211.128 169.754 203.672 172.751 197.823C175.746 191.976 181.741 185.398 190.73 178.088C199.72 170.781 205.092 165.992 206.848 163.726C209.55 160.145 210.903 156.2 210.903 151.885C210.903 145.892 208.509 140.758 203.722 136.481C198.933 132.207 192.486 130.067 184.373 130.067C176.261 130.067 170.011 132.297 164.748 136.755C159.485 141.213 155.868 148.011 153.895 157.148L125.609 153.638C126.412 140.556 131.985 129.448 142.328 120.311C152.671 111.174 166.247 106.606 183.056 106.606C200.744 106.606 214.811 111.231 225.266 120.475C235.716 129.722 240.943 140.484 240.943 152.761C240.943 159.559 239.025 165.992 235.187 172.058C231.348 178.124 223.145 186.384 210.575 196.834C204.07 202.245 200.032 206.591 198.459 209.881C196.887 213.169 196.174 219.054 196.322 227.532L196.324 227.534Z" fill="#FF6E8D"/>
<path d="M196.029 240.498H168.758V267.771H196.029V240.498Z" fill="#FF6E8D"/>
<path d="M197.332 226.529H169.375C169.301 222.509 169.265 220.06 169.265 219.183C169.265 210.122 170.762 202.667 173.759 196.818C176.754 190.971 182.748 184.393 191.738 177.083C200.727 169.775 206.1 164.986 207.856 162.721C210.558 159.14 211.911 155.194 211.911 150.879C211.911 144.887 209.517 139.753 204.73 135.476C199.941 131.201 193.494 129.062 185.381 129.062C177.268 129.062 171.019 131.292 165.756 135.75C160.493 140.208 156.876 147.005 154.903 156.142L126.617 152.633C127.42 139.55 132.993 128.442 143.336 119.305C153.679 110.168 167.255 105.601 184.064 105.601C201.752 105.601 215.819 110.225 226.273 119.47C236.723 128.716 241.951 139.479 241.951 151.756C241.951 158.553 240.033 164.986 236.195 171.052C232.356 177.119 224.153 185.379 211.582 195.829C205.078 201.24 201.04 205.586 199.467 208.876C197.895 212.164 197.182 218.049 197.33 226.526L197.332 226.529Z" fill="#FF6888"/>
<path d="M197.037 239.49H169.766V266.763H197.037V239.49Z" fill="#FF6888"/>
<path d="M198.332 225.521H170.375C170.301 221.501 170.265 219.052 170.265 218.175C170.265 209.114 171.762 201.659 174.759 195.81C177.754 189.963 183.748 183.385 192.738 176.075C201.727 168.768 207.1 163.979 208.856 161.713C211.558 158.132 212.911 154.186 212.911 149.871C212.911 143.879 210.517 138.745 205.73 134.468C200.941 130.194 194.494 128.054 186.381 128.054C178.268 128.054 172.019 130.284 166.756 134.742C161.493 139.2 157.876 145.997 155.903 155.134L127.617 151.625C128.42 138.542 133.993 127.435 144.336 118.297C154.679 109.16 168.254 104.593 185.064 104.593C202.752 104.593 216.819 109.217 227.273 118.462C237.723 127.709 242.951 138.471 242.951 150.748C242.951 157.546 241.033 163.979 237.194 170.045C233.356 176.111 225.153 184.371 212.582 194.821C206.078 200.232 202.04 204.578 200.467 207.868C198.895 211.156 198.182 217.041 198.33 225.518L198.332 225.521Z" fill="#FF6283"/>
<path d="M198.037 238.484H170.766V265.758H198.037V238.484Z" fill="#FF6283"/>
<path d="M199.332 224.515H171.375C171.301 220.496 171.265 218.047 171.265 217.17C171.265 208.109 172.762 200.654 175.759 194.804C178.754 188.958 184.748 182.379 193.738 175.07C202.727 167.762 208.1 162.973 209.856 160.707C212.558 157.126 213.911 153.181 213.911 148.866C213.911 142.874 211.517 137.739 206.73 133.462C201.941 129.188 195.494 127.049 187.381 127.049C179.268 127.049 173.019 129.279 167.756 133.736C162.493 138.194 158.876 144.992 156.903 154.129L128.617 150.619C129.42 137.537 134.993 126.429 145.336 117.292C155.679 108.155 169.255 103.587 186.064 103.587C203.752 103.587 217.819 108.212 228.273 117.456C238.723 126.703 243.951 137.465 243.951 149.743C243.951 156.54 242.033 162.973 238.195 169.039C234.356 175.105 226.153 183.366 213.582 193.816C207.078 199.227 203.04 203.572 201.467 206.863C199.895 210.151 199.182 216.036 199.33 224.513L199.332 224.515Z" fill="#FF5B7E"/>
<path d="M199.037 237.479H171.766V264.752H199.037V237.479Z" fill="#FF5B7E"/>
<path d="M200.348 223.51H172.391C172.317 219.491 172.281 217.041 172.281 216.164C172.281 207.104 173.777 199.648 176.775 193.799C179.769 187.952 185.764 181.374 194.754 174.064C203.743 166.757 209.116 161.968 210.872 159.702C213.574 156.121 214.927 152.175 214.927 147.861C214.927 141.868 212.532 136.734 207.746 132.457C202.957 128.183 196.509 126.043 188.397 126.043C180.284 126.043 174.035 128.273 168.771 132.731C163.508 137.189 159.892 143.987 157.919 153.124L129.633 149.614C130.436 136.531 136.009 125.424 146.351 116.287C156.694 107.149 170.27 102.582 187.079 102.582C204.768 102.582 218.834 107.207 229.289 116.451C239.739 125.698 244.966 136.46 244.966 148.737C244.966 155.535 243.048 161.968 239.21 168.034C235.372 174.1 227.169 182.36 214.598 192.81C208.094 198.221 204.055 202.567 202.483 205.857C200.91 209.145 200.198 215.03 200.345 223.508L200.348 223.51Z" fill="#FF5579"/>
<path d="M200.052 236.471H172.781V263.745H200.052V236.471Z" fill="#FF5579"/>
<path d="M201.356 222.502H173.398C173.325 218.483 173.289 216.033 173.289 215.157C173.289 206.096 174.785 198.641 177.782 192.791C180.777 186.945 186.772 180.366 195.761 173.056C204.751 165.749 210.124 160.96 211.88 158.694C214.581 155.113 215.935 151.168 215.935 146.853C215.935 140.861 213.54 135.726 208.754 131.449C203.965 127.175 197.517 125.036 189.405 125.036C181.292 125.036 175.042 127.266 169.779 131.723C164.516 136.181 160.899 142.979 158.927 152.116L130.641 148.606C131.444 135.524 137.016 124.416 147.359 115.279C157.702 106.142 171.278 101.574 188.087 101.574C205.775 101.574 219.842 106.199 230.297 115.443C240.747 124.69 245.974 135.452 245.974 147.73C245.974 154.527 244.056 160.96 240.218 167.026C236.38 173.092 228.176 181.353 215.606 191.803C209.101 197.213 205.063 201.559 203.49 204.85C201.918 208.138 201.206 214.023 201.353 222.5L201.356 222.502Z" fill="#FF4F74"/>
<path d="M201.06 235.466H173.789V262.739H201.06V235.466Z" fill="#FF4F74"/>
<path d="M202.363 221.496H174.406C174.332 217.477 174.297 215.028 174.297 214.151C174.297 205.09 175.793 197.635 178.79 191.786C181.785 185.939 187.78 179.36 196.769 172.051C205.759 164.743 211.131 159.954 212.887 157.689C215.589 154.107 216.942 150.162 216.942 145.847C216.942 139.855 214.548 134.72 209.761 130.444C204.972 126.169 198.525 124.03 190.412 124.03C182.3 124.03 176.05 126.26 170.787 130.718C165.524 135.175 161.907 141.973 159.934 151.11L131.648 147.601C132.451 134.518 138.024 123.41 148.367 114.273C158.71 105.136 172.286 100.568 189.095 100.568C206.783 100.568 220.85 105.193 231.305 114.438C241.755 123.684 246.982 134.446 246.982 146.724C246.982 153.521 245.064 159.954 241.226 166.02C237.387 172.086 229.184 180.347 216.614 190.797C210.109 196.208 206.071 200.554 204.498 203.844C202.926 207.132 202.213 213.017 202.361 221.494L202.363 221.496Z" fill="#FF496F"/>
<path d="M202.068 234.458H174.797V261.731H202.068V234.458Z" fill="#FF496F"/>
<path d="M203.379 220.489H175.422C175.348 216.469 175.312 214.02 175.312 213.143C175.312 204.082 176.809 196.627 179.806 190.778C182.801 184.931 188.795 178.353 197.785 171.043C206.774 163.736 212.147 158.947 213.903 156.681C216.605 153.1 217.958 149.154 217.958 144.839C217.958 138.847 215.564 133.713 210.777 129.436C205.988 125.162 199.541 123.022 191.428 123.022C183.315 123.022 177.066 125.252 171.803 129.71C166.54 134.168 162.923 140.965 160.95 150.102L132.664 146.593C133.467 133.51 139.04 122.402 149.383 113.265C159.725 104.128 173.301 99.5607 190.11 99.5607C207.799 99.5607 221.866 104.185 232.32 113.43C242.77 122.676 247.998 133.439 247.998 145.716C247.998 152.514 246.08 158.947 242.241 165.013C238.403 171.079 230.2 179.339 217.629 189.789C211.125 195.2 207.086 199.546 205.514 202.836C203.941 206.124 203.229 212.009 203.377 220.486L203.379 220.489Z" fill="#FF426A"/>
<path d="M203.084 233.452H175.812V260.726H203.084V233.452Z" fill="#FF426A"/>
<path d="M204.371 219.483H176.414C176.34 215.464 176.304 213.015 176.304 212.138C176.304 203.077 177.801 195.622 180.798 189.772C183.793 183.926 189.787 177.347 198.777 170.038C207.766 162.73 213.139 157.941 214.895 155.675C217.597 152.094 218.95 148.149 218.95 143.834C218.95 137.842 216.556 132.707 211.769 128.431C206.98 124.156 200.533 122.017 192.42 122.017C184.308 122.017 178.058 124.247 172.795 128.704C167.532 133.162 163.915 139.96 161.942 149.097L133.656 145.587C134.459 132.505 140.032 121.397 150.375 112.26C160.718 103.123 174.294 98.5553 191.103 98.5553C208.791 98.5553 222.858 103.18 233.312 112.424C243.762 121.671 248.99 132.433 248.99 144.711C248.99 151.508 247.072 157.941 243.234 164.007C239.395 170.073 231.192 178.334 218.621 188.784C212.117 194.195 208.079 198.54 206.506 201.831C204.934 205.119 204.221 211.004 204.369 219.481L204.371 219.483Z" fill="#FF3C65"/>
<path d="M204.076 232.447H176.805V259.72H204.076V232.447Z" fill="#FF3C65"/>
</g>
<path d="M204.387 219.483H176.43C176.356 215.464 176.32 213.015 176.32 212.138C176.32 203.077 177.816 195.622 180.814 189.772C183.809 183.926 189.803 177.347 198.793 170.038C207.782 162.73 213.155 157.941 214.911 155.675C217.613 152.094 218.966 148.149 218.966 143.834C218.966 137.842 216.571 132.707 211.785 128.43C206.996 124.156 200.549 122.017 192.436 122.017C184.323 122.017 178.074 124.247 172.811 128.704C167.547 133.162 163.931 139.96 161.958 149.097L133.672 145.587C134.475 132.505 140.048 121.397 150.39 112.26C160.733 103.123 174.309 98.5553 191.118 98.5553C208.807 98.5553 222.873 103.18 233.328 112.424C243.778 121.671 249.006 132.433 249.006 144.711C249.006 151.508 247.088 157.941 243.249 164.007C239.411 170.073 231.208 178.334 218.637 188.784C212.133 194.195 208.094 198.54 206.522 201.831C204.949 205.119 204.237 211.004 204.385 219.481L204.387 219.483Z" fill="#FF3C65"/>
<path d="M204.091 232.447H176.82V259.72H204.091V232.447Z" fill="#FF3C65"/>
<path d="M290.855 235.042H273.709C273.664 232.576 273.643 231.075 273.643 230.536C273.643 224.98 274.56 220.405 276.399 216.82C278.236 213.234 281.913 209.2 287.426 204.716C292.939 200.234 296.234 197.297 297.311 195.908C298.97 193.711 299.799 191.29 299.799 188.646C299.799 184.972 298.331 181.822 295.393 179.199C292.458 176.575 288.501 175.265 283.526 175.265C278.551 175.265 274.717 176.633 271.489 179.368C268.263 182.103 266.042 186.27 264.832 191.874L247.484 189.723C247.978 181.698 251.394 174.886 257.739 169.282C264.081 163.678 272.409 160.877 282.718 160.877C293.566 160.877 302.193 163.712 308.605 169.382C315.014 175.053 318.221 181.653 318.221 189.184C318.221 193.354 317.044 197.299 314.69 201.018C312.336 204.74 307.304 209.805 299.594 216.214C295.603 219.533 293.128 222.199 292.165 224.215C291.2 226.231 290.764 229.84 290.855 235.042Z" fill="#002F47"/>
<path d="M290.671 242.992H273.945V259.718H290.671V242.992Z" fill="#002F47"/>
<path d="M114.581 235.042H97.436C97.3908 232.576 97.3693 231.075 97.3693 230.536C97.3693 224.98 98.2866 220.405 100.126 216.82C101.963 213.234 105.639 209.2 111.153 204.716C116.666 200.234 119.961 197.297 121.038 195.908C122.696 193.711 123.525 191.29 123.525 188.646C123.525 184.972 122.058 181.822 119.12 179.199C116.185 176.575 112.227 175.265 107.252 175.265C102.277 175.265 98.4438 176.633 95.2155 179.368C91.9871 182.103 89.7689 186.27 88.5585 191.874L71.2109 189.722C71.7041 181.698 75.1208 174.886 81.4656 169.282C87.808 163.678 96.1351 160.877 106.445 160.877C117.292 160.877 125.92 163.712 132.331 169.382C138.74 175.053 141.947 181.653 141.947 189.184C141.947 193.354 140.77 197.299 138.416 201.018C136.062 204.74 131.03 209.805 123.32 216.214C119.33 219.533 116.854 222.199 115.891 224.215C114.927 226.231 114.491 229.84 114.581 235.042Z" fill="#002F47"/>
<path d="M114.398 242.992H97.6719V259.718H114.398V242.992Z" fill="#002F47"/>
</svg>
